<svg id="Capa_1" data-name="Capa 1" xmlns="http://www.w3.org/2000/svg" viewBox="0 0 243.56 47.12"><title>logo-default-253x50</title><text transform="translate(53.17 30.96)" style="font-size:23px;fill:#fff;font-family:Nunito-Bold, Nunito;font-weight:700">S<tspan x="14.51" y="0" style="letter-spacing:-0.004988960597826087em">a</tspan><tspan x="26.98" y="0" style="letter-spacing:-0.009977921195652174em">v</tspan><tspan x="38.87" y="0">e </tspan><tspan x="57.57" y="0" style="letter-spacing:-0.004988960597826087em">R</tspan><tspan x="73.23" y="0">alph </tspan><tspan x="126.64" y="0" style="letter-spacing:-0.07795516304347826em">T</tspan><tspan x="139.13" y="0">o</tspan><tspan x="152.37" y="0" style="letter-spacing:-0.010020380434782608em">k</tspan><tspan x="164.47" y="0">en</tspan></text><circle cx="23.56" cy="23.56" r="23.56" style="fill:#e7d600"/><circle cx="23.56" cy="23.56" r="21.56" style="fill:none;stroke:#5c4300;stroke-miterlimit:10;stroke-width:0.43296767999999997px"/><path d="M36.38,29.26a2.09,2.09,0,0,1-.2.74l.27.07a1.24,1.24,0,0,1,.3-.68l-.24-.14a2.87,2.87,0,0,1-.62,1l.22.18a2.49,2.49,0,0,1,.36-.43l-.23-.17a1.75,1.75,0,0,1-.34.38l.25.1-.19,0,0,0a.27.27,0,0,0-.07.08s-.09.09-.15.13l.18.22.26-.27a.14.14,0,0,0-.17-.23,6.27,6.27,0,0,1-1,.37l.14.24a1.85,1.85,0,0,1,.74-.52l-.17-.21a1,1,0,0,1-.62.44l.16.21a10.89,10.89,0,0,1,1-1.32l-.2-.2a7.75,7.75,0,0,1-1.17,1.12l.2.2c.32-.39.63-.8.92-1.21.1-.14-.11-.29-.22-.18a14.25,14.25,0,0,0-1,1.07c-.12.14.08.34.2.2l1.45-1.56-.23-.18a13.07,13.07,0,0,0-1.15,1.8c-.09.16.14.29.25.14.4-.58.81-1.16,1.26-1.71l-.24-.14a10.22,10.22,0,0,1-.37,1c-.07.14.11.31.22.18a4.53,4.53,0,0,0,.68-1.21l-.27-.08a2.39,2.39,0,0,1-.17.92c-.06.16.18.23.26.11a4.48,4.48,0,0,0,.49-.88c.06-.15-.2-.26-.27-.11l-.32.72c-.08.17.17.32.25.15a5.56,5.56,0,0,0,.42-1.37.15.15,0,0,0-.27-.11,3.7,3.7,0,0,0-.53,1.32.15.15,0,0,0,.27.11,7,7,0,0,0,.65-1.85.14.14,0,0,0-.28-.07l-.77,1.84c-.06.15.19.26.26.11a13.47,13.47,0,0,0,.75-2.33.15.15,0,0,0-.27-.11,6,6,0,0,0-.74,1.78c0,.12.14.26.24.14a3.55,3.55,0,0,0,.71-1.55c0-.15-.18-.26-.26-.11-.27.49-.54,1-.83,1.45l.25.15.71-1.5c.07-.16-.17-.31-.25-.14a6.25,6.25,0,0,0-.53,1.38.15.15,0,0,0,.28.08l.41-1.38a.15.15,0,0,0-.27-.11,6,6,0,0,0-.52,1.16c-.05.15.18.25.27.11A3.94,3.94,0,0,0,37,27.47a.14.14,0,0,0-.28-.07l-.18.68.28.07.41-1.76a.14.14,0,1,0-.27-.08,1.85,1.85,0,0,0-.1.9.14.14,0,0,0,.28,0l.45-1.54-.28-.08a17.88,17.88,0,0,0-.18,1.78c0,.16.25.2.28,0a6.7,6.7,0,0,0,.14-1.34.14.14,0,0,0-.28,0,4.46,4.46,0,0,0-.14.89.15.15,0,0,0,.29,0c0-.48,0-1,0-1.44h-.29v1.22a.15.15,0,0,0,.29,0c0-.54,0-1.08,0-1.62,0-.15-.26-.2-.29,0a5.45,5.45,0,0,0-.06,1.14.15.15,0,0,0,.29,0c0-.42,0-.85,0-1.27,0-.2-.26-.18-.29,0a8.72,8.72,0,0,0-.06,1.35.15.15,0,0,0,.29,0,5.88,5.88,0,0,0-.19-1.38c0-.13-.25-.15-.28,0a3.06,3.06,0,0,0,0,1,.15.15,0,0,0,.29,0,7.93,7.93,0,0,0,0-1.09.15.15,0,0,0-.29,0l0,1c0,.15.26.2.28,0a3.47,3.47,0,0,0,0-1.16c0-.16-.28-.12-.29,0,0,.37,0,.73,0,1.09h.29A9.88,9.88,0,0,0,37,24.37a.15.15,0,0,0-.28,0,3.46,3.46,0,0,0,0,1.36c0,.15.24.13.27,0a3.09,3.09,0,0,0,.14-.85h-.28a14.07,14.07,0,0,0,0,1.45.15.15,0,0,0,.29,0,2.78,2.78,0,0,0,.17-.77H37c-.05.6-.12,1.2-.22,1.8,0,.18.24.26.28.07a11.9,11.9,0,0,0,.27-1.69c0-.16-.25-.19-.28,0l-.47,2.32a.14.14,0,0,0,.27.08,13.3,13.3,0,0,0,.46-1.64c0-.15-.19-.27-.26-.11a5.84,5.84,0,0,0-.41,1.22l.28.08a5.17,5.17,0,0,1,.22-.86c.06-.18-.22-.25-.28-.08a14.53,14.53,0,0,0-.53,1.66.14.14,0,1,0,.27.08l.39-1-.28-.07a7.89,7.89,0,0,1-1,2l.25.15a19.93,19.93,0,0,0,.88-2.08,6.53,6.53,0,0,0,.3-1.07,1.43,1.43,0,0,0,0-1c-.07-.14-.26-.06-.27.07A7.79,7.79,0,0,1,35.2,30l.22.17A16.8,16.8,0,0,0,36.55,28,3.53,3.53,0,0,0,37,25.65l-.28.08a1,1,0,0,1,0,.58c0,.2-.12.4-.18.59-.13.4-.26.79-.41,1.17A7.63,7.63,0,0,1,35,30.12a4.54,4.54,0,0,1-.9.85l.14.25.64-.46-.21-.17a1.38,1.38,0,0,1-.2.33.15.15,0,0,0,.1.25.59.59,0,0,0,.4-.15c.15-.11-.06-.32-.2-.2a.36.36,0,0,1-.2.06l.1.24a1.62,1.62,0,0,0,.28-.45c0-.12-.12-.24-.21-.17l-.64.47c-.15.11,0,.36.14.25a7.68,7.68,0,0,0,2.55-4.15A2.45,2.45,0,0,0,37,25.65c-.06-.17-.34-.1-.28.08a2,2,0,0,1,0,1.12,9.46,9.46,0,0,1-.42,1.09A19.49,19.49,0,0,1,35.17,30c-.08.13.12.3.23.17a7.32,7.32,0,0,0,1.6-3.6c.06-.38.11-.77.15-1.15l-.27.07a1.45,1.45,0,0,1,0,.94,8.83,8.83,0,0,1-.3,1c-.23.65-.53,1.29-.82,1.92a.15.15,0,0,0,.25.15,8.13,8.13,0,0,0,1-2.06c.07-.17-.21-.25-.28-.07l-.38,1,.28.08a16,16,0,0,1,.53-1.66l-.28-.08a6.38,6.38,0,0,0-.22.86c0,.18.24.26.28.08a6.46,6.46,0,0,1,.38-1.15L37,26.42a15.32,15.32,0,0,1-.46,1.64l.28.08.47-2.33-.28,0a14.59,14.59,0,0,1-.26,1.61l.28.07c.1-.62.17-1.24.22-1.87,0-.18-.27-.18-.29,0a2.39,2.39,0,0,1-.17.7l.28,0a14.07,14.07,0,0,1,0-1.45.15.15,0,0,0-.29,0,3.35,3.35,0,0,1-.13.77h.28a3,3,0,0,1,0-1.2h-.28a9,9,0,0,1,.22,1.35c0,.19.29.19.28,0,0-.36,0-.72,0-1.09l-.29,0a2.8,2.8,0,0,1,0,1l.28,0,0-1h-.29a6.62,6.62,0,0,1,0,1.09h.29a2.91,2.91,0,0,1,0-.93h-.28a5.32,5.32,0,0,1,.19,1.31h.29a8.85,8.85,0,0,1,.06-1.36h-.29a10.93,10.93,0,0,1,0,1.28h.29a4.68,4.68,0,0,1,0-1.06l-.28,0c0,.54,0,1.08,0,1.62h.29V25.52a.15.15,0,0,0-.29,0c0,.48,0,1,0,1.44h.29a3.69,3.69,0,0,1,.12-.81l-.28,0a6,6,0,0,1-.14,1.26l.29,0c0-.57.09-1.14.17-1.7,0-.18-.23-.26-.28-.08l-.45,1.54.29,0a1.68,1.68,0,0,1,.09-.83L37,26.31l-.42,1.76a.15.15,0,0,0,.28.08l.18-.68-.27-.08a3.87,3.87,0,0,1-.43,1.08l.26.11a6.27,6.27,0,0,1,.49-1.09l-.26-.11-.41,1.38.28.08a5.7,5.7,0,0,1,.5-1.32l-.25-.15-.71,1.5a.15.15,0,0,0,.25.15c.29-.48.57-1,.83-1.46l-.26-.11a3.24,3.24,0,0,1-.65,1.42l.25.14a5.69,5.69,0,0,1,.71-1.71l-.26-.11a13,13,0,0,1-.72,2.27l.27.11.77-1.85-.28-.07a6.42,6.42,0,0,1-.62,1.77l.26.12a3.74,3.74,0,0,1,.5-1.26L37,28.17a4.88,4.88,0,0,1-.39,1.3l.25.15.32-.73-.26-.11a4,4,0,0,1-.46.81l.27.11a2.76,2.76,0,0,0,.18-1c0-.13-.21-.21-.27-.07A4.43,4.43,0,0,1,36,29.79l.23.18a10,10,0,0,0,.39-1c0-.13-.15-.25-.24-.14-.46.57-.88,1.17-1.3,1.77l.25.14a12.39,12.39,0,0,1,1.15-1.79c.1-.13-.12-.3-.23-.18L34.84,30.3l.2.2c.32-.37.65-.72,1-1.06l-.22-.18c-.28.4-.58.78-.88,1.16a.14.14,0,0,0,.2.2A7.29,7.29,0,0,0,36.3,29.5c.12-.14-.08-.34-.2-.2A10.26,10.26,0,0,0,35,30.68a.14.14,0,0,0,.16.21,1.33,1.33,0,0,0,.8-.57.15.15,0,0,0-.16-.22,2.16,2.16,0,0,0-.86.6.15.15,0,0,0,.14.24,7.09,7.09,0,0,0,1-.4L36,30.31l-.27.28c-.1.11,0,.33.18.23s.46-.35.38-.59-.4-.17-.39.06a.14.14,0,0,0,.15.14.13.13,0,0,0,.1,0,2.25,2.25,0,0,0,.38-.43c.1-.14-.11-.29-.22-.18a3,3,0,0,0-.4.48.14.14,0,0,0,.22.18,3.17,3.17,0,0,0,.7-1.11c0-.14-.15-.25-.24-.14a1.51,1.51,0,0,0-.39.88.15.15,0,0,0,.27.07,2.22,2.22,0,0,0,.24-.88c0-.19-.27-.19-.28,0Z" transform="translate(-4.17 -1.62)" style="fill:#84809e"/><path d="M18.35,30s-2.92-3.9,1.15-8l.38-.29-.12-3.19s1.9-3.66,5.49-4c0,0,2.81-.48,4.45.34" transform="translate(-4.17 -1.62)" style="fill:none;stroke:#000;stroke-miterlimit:10;stroke-width:0.16837632px"/><path d="M18.36,29.84a6,6,0,0,1-.8-4.48C17.54,24,20,21.59,20,21.59l-.2-3.1c.65-1.47,3.37-3.43,3.37-3.43l1.52-.56,2.69-.23,1.7.22.66.44c1,.28,3.51,2.79,3.51,2.79C34,17.81,35,21.28,35,21.28L35.39,23H36v.12l-.05.31.24.15.34.1-.17.26.1.31c1.29,3.9-2.41,6.55-2.41,6.55s-3.8-1.69-6.3-.34a9.29,9.29,0,0,1-4.21-.15s-1.61.1-1.85,1C21.68,31.35,18.21,30.44,18.36,29.84Z" transform="translate(-4.17 -1.62)" style="fill:#eae8f6"/><path d="M21.71,23.11h.38v.08l-.63.5-.7-.05h-.48s-.48-.38-.19-1.39l.24-.22s-.63,0,0-.36Z" transform="translate(-4.17 -1.62)" style="fill:#dc7565"/><path d="M20.76,23.73a2.66,2.66,0,0,0,0-1.18h-.19v-.26l-.14-.36-.1-.56s-.07-1.32.31-1.51l.37-.6.4-.34.15-.07.24.31.09.07.17,0,.19.07.2.08.38,0,1.44,1.13.2.12-.32.91-.31.12Z" transform="translate(-4.17 -1.62)" style="fill:#b52e0d;opacity:0.7799999713897705;isolation:isolate"/><polygon points="17.15 17.46 20.2 19.07 20.32 19.07 20.26 18.45 20.13 18.05 19.76 17.61 19.09 17.03 17.25 17.28 17.15 17.46" style="fill:#dc6666"/><path d="M21.39,26.25s-.77.61.12.25c0,0-.72.91.41.38,0,0,1,1.73,2.91.41l1.1-.79.1-.1L26,25.08" transform="translate(-4.17 -1.62)" style="fill:none;stroke:#000;stroke-miterlimit:10;stroke-width:0.09621503999999999px"/><path d="M26,26.42s2.48,1.41,4.21.86c0,0,2.16-.14,1.08-.57l-.07-.17.31,0" transform="translate(-4.17 -1.62)" style="fill:none;stroke:#000;stroke-miterlimit:10;stroke-width:0.09621503999999999px"/><path d="M31.3,26.16s1-.17.41-.43c0,0,.6-.29,0-.32" transform="translate(-4.17 -1.62)" style="fill:none;stroke:#000;stroke-miterlimit:10;stroke-width:0.09621503999999999px"/><path d="M32.19,25.24s.82.12.21-.33c0,0,.77.26-.33-.8" transform="translate(-4.17 -1.62)" style="fill:none;stroke:#000;stroke-miterlimit:10;stroke-width:0.09621503999999999px"/><path d="M31.8,23.9l-.21-.07.19-.15s-1.8-.89-.84-.77l-2-1,.33-.15A3.09,3.09,0,0,0,27,21.35l-1.4.43-.14.1h-.94a5.73,5.73,0,0,0-1.61.89l.38.19-.57.17.09.19a3.7,3.7,0,0,0-.53.65" transform="translate(-4.17 -1.62)" style="fill:none;stroke:#000;stroke-miterlimit:10;stroke-width:0.09621503999999999px"/><line x1="18.02" y1="22.51" x2="17.68" y2="23.07" style="fill:none;stroke:#000;stroke-miterlimit:10;stroke-width:0.09621503999999999px"/><path d="M21.8,25v.26s-1,.27-.17.27l-.1.52" transform="translate(-4.17 -1.62)" style="fill:none;stroke:#000;stroke-miterlimit:10;stroke-width:0.09621503999999999px"/><path d="M26,29s-.19-1-.17-1.08" transform="translate(-4.17 -1.62)" style="fill:none;stroke:#000;stroke-miterlimit:10;stroke-width:0.09621503999999999px"/><line x1="22.66" y1="25.5" x2="21.79" y2="24.99" style="fill:none;stroke:#000;stroke-miterlimit:10;stroke-width:0.09621503999999999px"/><path d="M18.57,30.18l.21.13s-.3,1,.23.54l.41-.34L19.3,31l.31-.12s-.55,1.81.77.27c0,0-.7,1.68.41.16,0,0,0,1,.48,0l.24.34" transform="translate(-4.17 -1.62)" style="fill:none;stroke:#000;stroke-miterlimit:10;stroke-width:0.09621503999999999px"/><polyline points="17.3 22.11 18.09 21.46 17.44 21.46 18.18 20.87" style="fill:none;stroke:#000;stroke-miterlimit:10;stroke-width:0.09621503999999999px"/><path d="M20.91,21.93s-.88-1.1.77-2.16c0,0,1.27-.23,1.75.54l-1,.27-.37.06-.32.32Z" transform="translate(-4.17 -1.62)" style="fill:#dc7565"/><path d="M20.9,21.37a11.49,11.49,0,0,1,1.41-1.05" transform="translate(-4.17 -1.62)" style="fill:none;stroke:#000;stroke-miterlimit:10;stroke-width:0.09621503999999999px"/><path d="M21.05,20.89a6.51,6.51,0,0,1,1.16-.82" transform="translate(-4.17 -1.62)" style="fill:none;stroke:#000;stroke-miterlimit:10;stroke-width:0.09621503999999999px"/><line x1="17.92" y1="20.93" x2="16.76" y2="20.25" style="fill:none"/><path d="M26.58,23.18l-.13,1s-.22.69-.8.27c0,0-.46-1-.27-1.31a4.19,4.19,0,0,0-1.13.36c-.17.17-.29.12-.29.12l-.12-.19s.89-1.32,3.3-1a1.26,1.26,0,0,1,1,.51Z" transform="translate(-4.17 -1.62)" style="fill:#fdbca1"/><polygon points="20.28 21.82 20.93 21.55 21.26 21.55 21.14 21.79 21.12 21.96 20.4 21.96 19.99 21.96 20.28 21.82" style="fill:#fdbca1"/><path d="M26.63,23.44l1.49-.31L28.2,23s-.58.1-1.57.17Z" transform="translate(-4.17 -1.62)" style="fill:#fdbca1"/><path d="M25.38,23.56s-1.95.29-1.47-.29c0,0,.73-1,3.47-.82,0,0,1.1.32.74.68a4.53,4.53,0,0,1-1.54.3" transform="translate(-4.17 -1.62)" style="fill:none;stroke:#000;stroke-miterlimit:10;stroke-width:0.09621503999999999px"/><path d="M24.27,23.54a2.31,2.31,0,0,1,1.09-.39s-.08,1.37.67,1.45c0,0,.6.07.55-1.52h.94" transform="translate(-4.17 -1.62)" style="fill:none;stroke:#000;stroke-miterlimit:10;stroke-width:0.09621503999999999px"/><path d="M22.11,22.62s-1.85-.26-1.4-1.87a1.6,1.6,0,0,1,2-1,1.46,1.46,0,0,1,1.06,1.66l-.41-.21.24.6Z" transform="translate(-4.17 -1.62)" style="fill:none;stroke:#000;stroke-miterlimit:10;stroke-width:0.09621503999999999px"/><path d="M20.76,23.18s0,.5.24.12c0,0,.34.5.24-.12" transform="translate(-4.17 -1.62)" style="fill:none;stroke:#000;stroke-miterlimit:10;stroke-width:0.09621503999999999px"/><path d="M20.5,22.55s.14.48.38.05" transform="translate(-4.17 -1.62)" style="fill:none;stroke:#000;stroke-miterlimit:10;stroke-width:0.09621503999999999px"/><path d="M20.35,22.21s-.09.24.15.15" transform="translate(-4.17 -1.62)" style="fill:none;stroke:#000;stroke-miterlimit:10;stroke-width:0.09621503999999999px"/><path d="M20.69,20.19" transform="translate(-4.17 -1.62)" style="fill:none;stroke:#000;stroke-miterlimit:10;stroke-width:0.09621503999999999px"/><polyline points="16.64 18.23 16.89 18.23 16.93 18.11" style="fill:none;stroke:#000;stroke-miterlimit:10;stroke-width:0.09621503999999999px"/><path d="M21.41,19.23s-.31.39.22.29" transform="translate(-4.17 -1.62)" style="fill:none;stroke:#000;stroke-miterlimit:10;stroke-width:0.09621503999999999px"/><path d="M22.42,19.09s-.26.45.32.29" transform="translate(-4.17 -1.62)" style="fill:none;stroke:#000;stroke-miterlimit:10;stroke-width:0.09621503999999999px"/><path d="M23.36,19.23s-.38.43.12.19c0,0,0,.48.22,0" transform="translate(-4.17 -1.62)" style="fill:none;stroke:#000;stroke-miterlimit:10;stroke-width:0.09621503999999999px"/><path d="M23.79,20s.1.68.36.05" transform="translate(-4.17 -1.62)" style="fill:none;stroke:#000;stroke-miterlimit:10;stroke-width:0.09621503999999999px"/><path d="M20.69,24,21,24l-.25.25S20.61,24.31,20.69,24Z" transform="translate(-4.17 -1.62)" style="fill:#bb4037"/><path d="M20.71,24.28s-.33.1-.18-.36h.15Z" transform="translate(-4.17 -1.62)" style="fill:#dc7565"/><line x1="16.98" y1="22.35" x2="16.48" y2="22.78" style="fill:none;stroke:#000;stroke-miterlimit:10;stroke-width:0.09621503999999999px"/><path d="M20.16,24h.31c-.12.31.22.31.22.31" transform="translate(-4.17 -1.62)" style="fill:none;stroke:#000;stroke-miterlimit:10;stroke-width:0.09621503999999999px"/><path d="M22.09,18.61l-.2.21-.43.05a2.75,2.75,0,0,0-1.13,2.79l-.17,0c-.36.37.07.37.07.37l-.16.21v.36c-.2.82.21,1.06.21,1.06h.41s-.12.48.36.29" transform="translate(-4.17 -1.62)" style="fill:none;stroke:#000;stroke-miterlimit:10;stroke-width:0.09621503999999999px"/><path d="M21.82,18.83V19h.27l.21-.32v.27l.24,0v-.24l.29.07h.36l.07-.15s1,.63.94,1.25l.12-.4.15,1s0,.92-.46,1.2l-.12.05-.3-.38" transform="translate(-4.17 -1.62)" style="fill:none;stroke:#000;stroke-miterlimit:10;stroke-width:0.09621503999999999px"/><path d="M30.5,22.12a3.26,3.26,0,0,0,2.34.31" transform="translate(-4.17 -1.62)" style="fill:none;stroke:#000;stroke-miterlimit:10;stroke-width:0.09621503999999999px"/><path d="M31.56,22.81l1.32-.33s.44-.62.28-.8H34s0,.73-.52.93c0,0-.42.47-.83.42A10.45,10.45,0,0,1,31.56,22.81Z" transform="translate(-4.17 -1.62)" style="fill:#a42a12"/><path d="M30.14,21.47s2.29,1,3.18.53l-.1-.27Z" transform="translate(-4.17 -1.62)" style="fill:#a42a12"/><path d="M30.14,21.59a3.57,3.57,0,0,1,3.83,0,2,2,0,0,0-.12-1l-3.8.12Z" transform="translate(-4.17 -1.62)" style="fill:#a42a12"/><path d="M30.16,20.7a1.62,1.62,0,0,1,2.05-1.18,2.3,2.3,0,0,1,1.64,1.06L32,20.63Z" transform="translate(-4.17 -1.62)" style="fill:#dc6666"/><path d="M30.14,20.89s2.1-.65,3.25.07" transform="translate(-4.17 -1.62)" style="fill:none;stroke:#000;stroke-miterlimit:10;stroke-width:0.09621503999999999px"/><path d="M31.72,22.78l1.21-.28.27-.39s-2.66-.59-3-.58C30.16,21.53,30.62,22.87,31.72,22.78Z" transform="translate(-4.17 -1.62)" style="fill:#dc6666"/><path d="M30.65,21.85a10.94,10.94,0,0,0,2.81.08" transform="translate(-4.17 -1.62)" style="fill:none;stroke:#000;stroke-miterlimit:10;stroke-width:0.09621503999999999px"/><path d="M32.48,23s-3.18-.19-2.26-2.72a1.91,1.91,0,0,1,2.25-.78S34.41,20,34,21.65C34,21.65,34.17,22.63,32.48,23Z" transform="translate(-4.17 -1.62)" style="fill:none;stroke:#000;stroke-miterlimit:10;stroke-width:0.21648383999999998px"/><path d="M25.12,19.23l.19-.1s.6.94.55,1.21C25.86,20.34,25.26,19.47,25.12,19.23Z" transform="translate(-4.17 -1.62)" style="stroke:#000;stroke-miterlimit:10;stroke-width:0.09621503999999999px"/><path d="M25.12,16.34s.53.61.55.89h.1S25.62,16.27,25.12,16.34Z" transform="translate(-4.17 -1.62)" style="stroke:#000;stroke-miterlimit:10;stroke-width:0.09621503999999999px"/><path d="M24.18,16.49a2.52,2.52,0,0,1,.55.43l.1-.07S24.56,16.39,24.18,16.49Z" transform="translate(-4.17 -1.62)" style="stroke:#000;stroke-miterlimit:10;stroke-width:0.09621503999999999px"/><path d="M30.05,18.22a1.3,1.3,0,0,1,.45-.58" transform="translate(-4.17 -1.62)" style="fill:none;stroke:#000;stroke-miterlimit:10;stroke-width:0.09621503999999999px"/><path d="M30.5,18.8a1.06,1.06,0,0,1,.27-.51" transform="translate(-4.17 -1.62)" style="fill:none;stroke:#000;stroke-miterlimit:10;stroke-width:0.09621503999999999px"/><path d="M29.73,19.38s.05.67.05.72,1.4-1.88,3.37-1" transform="translate(-4.17 -1.62)" style="fill:none;stroke:#000;stroke-miterlimit:10;stroke-width:0.09621503999999999px"/><path d="M33.2,19.38s.31-1,.26-.05c0,0,.82-.58.24.05,0,0,1.06.48.61,2.74" transform="translate(-4.17 -1.62)" style="fill:none;stroke:#000;stroke-miterlimit:10;stroke-width:0.09621503999999999px"/><path d="M29.13,24.6a11.33,11.33,0,0,1,6.76.28l-.19-.19S30.48,23.39,29.13,24.6Z" transform="translate(-4.17 -1.62)" style="fill:#fff;stroke:#fff;stroke-miterlimit:10;stroke-width:0.09621503999999999px"/><path d="M23,24.45a12.41,12.41,0,0,0-7.1.29l.21-.19S21.59,23.25,23,24.45Z" transform="translate(-4.17 -1.62)" style="fill:#fff;stroke:#fff;stroke-miterlimit:10;stroke-width:0.09621503999999999px"/><path d="M23.16,24.93a12.45,12.45,0,0,0-6.88,1.77l.16-.23S21.53,24.05,23.16,24.93Z" transform="translate(-4.17 -1.62)" style="fill:#fff;stroke:#fff;stroke-miterlimit:10;stroke-width:0.09621503999999999px"/><path d="M23.37,25.58a12.4,12.4,0,0,0-6.1,3.65l.09-.27S21.55,25.2,23.37,25.58Z" transform="translate(-4.17 -1.62)" style="fill:#fff;stroke:#fff;stroke-miterlimit:10;stroke-width:0.09621503999999999px"/><path d="M29.73,25.2s5.13.86,5.85,1.85C35.58,27.05,34.62,25.63,29.73,25.2Z" transform="translate(-4.17 -1.62)" style="fill:none;stroke:#fff;stroke-miterlimit:10;stroke-width:0.09621503999999999px"/><path d="M30,26a8,8,0,0,1,3.83,2.52A6.29,6.29,0,0,0,30,26Z" transform="translate(-4.17 -1.62)" style="fill:none;stroke:#fff;stroke-miterlimit:10;stroke-width:0.09621503999999999px"/><path d="M34.88,29.07l.34,1.8S35.1,29.09,34.88,29.07Z" transform="translate(-4.17 -1.62)" style="fill:none;stroke:#fff;stroke-miterlimit:10;stroke-width:0.09621503999999999px"/><path d="M27.87,19a1.51,1.51,0,0,1-1.23,1.39.9.9,0,0,1-.48-.12.69.69,0,0,1-.13-.11,1.08,1.08,0,0,1-.25-.78,1.1,1.1,0,0,1,1-1.15C27.4,18.26,27.87,18.39,27.87,19Z" transform="translate(-4.17 -1.62)" style="fill:#442e2f;opacity:0.8999999761581421;isolation:isolate"/><polygon points="22.17 18.68 22.17 17.5 22.24 17.59 22.31 18.03 22.31 18.68 22.17 18.68" style="stroke:#000;stroke-miterlimit:10;stroke-width:0.024053759999999997px"/><path d="M27.08,20.11s.05-1.11.43-1.32a3.89,3.89,0,0,0-.22,1.32Z" transform="translate(-4.17 -1.62)" style="stroke:#000;stroke-miterlimit:10;stroke-width:0.024053759999999997px"/><line x1="23.56" y1="17.67" x2="23.97" y2="17.16" style="fill:none;stroke:#000;stroke-miterlimit:10;stroke-width:0.024053759999999997px"/><path d="M26.19,20.26a1.77,1.77,0,0,0,0-.46.62.62,0,0,1-.06-.26.5.5,0,0,1,.12-.29,3.92,3.92,0,0,1,.37-.34,1,1,0,0,1,.22-.18c.16-.06.16.16.18.25a.59.59,0,0,0,.1.17c.06.12,0,.19,0,.3a2.38,2.38,0,0,0,0,.46.42.42,0,0,1-.05.25.33.33,0,0,1-.26.11c-.19,0-.37.1-.53,0s-.09,0-.05.05a.39.39,0,0,0,.36.08,1.13,1.13,0,0,0,.45-.09.34.34,0,0,0,.15-.3,2.21,2.21,0,0,1,.06-.57.42.42,0,0,0,.06-.19c0-.07-.07-.12-.1-.18s0-.32-.18-.38-.23.07-.31.14a3.79,3.79,0,0,0-.42.38.56.56,0,0,0-.16.44c0,.11.07.2.08.31s0,.22,0,.33.07,0,.07,0Z" transform="translate(-4.17 -1.62)" style="fill:#332627"/><path d="M26.84,19.19a5.61,5.61,0,0,1,0,.58h.07a3.86,3.86,0,0,1-.06-.49,0,0,0,0,0,0,0s0,0,0,0v.29s0,0,0,0a0,0,0,0,0,0,0V19.1s0,0,0,0a0,0,0,0,0,0,0v.34a0,0,0,0,0,0,0s0,0,0,0,0-.21,0-.31h-.08a2.16,2.16,0,0,1,0,.36h.08v-.39a0,0,0,0,0,0,0s0,0,0,0a1.37,1.37,0,0,0-.07.29h.07v-.31a0,0,0,0,0-.07,0l-.07.41h.07a2,2,0,0,1,0-.42h-.08c0,.1,0,.2,0,.3h.07v-.17h-.07v.06s0,0,0,0a0,0,0,0,0,0,0V18.9h-.07a.57.57,0,0,1,0,.13s.06.05.07,0-.07-.12-.12,0,0,.06.06,0l0,0s0-.07,0-.06l-.09,0,0,.06a.89.89,0,0,0,.29-.29,0,0,0,0,0,0-.05h0c-.09,0-.16.07-.23.12a1.94,1.94,0,0,0-.23.26s0,.06,0,.05a.59.59,0,0,0,.35-.27,0,0,0,0,0,0-.05,0,0,0,0,0,0,0,.91.91,0,0,0-.23.17,0,0,0,0,0,0,.05h0c.18,0,.29-.12.39-.26h-.07a1.87,1.87,0,0,1,.07.22S27,19,27,19v-.09s0,0,0,0,0,0,0,0l-.1.33h.07v-.19s0,0,0,0,0,0-.05,0l-.1.34h.07a.6.6,0,0,1,.09-.37h-.07a.13.13,0,0,1,0,.12l.07,0a2.11,2.11,0,0,1,0-.26.05.05,0,0,0,0-.05s0,0,0,0l-.07.19a0,0,0,0,0,.06,0A.86.86,0,0,0,26.9,19s0-.07-.07,0a.3.3,0,0,0,0,.16,0,0,0,0,0,.07,0,1.17,1.17,0,0,0,.07-.25h-.06a4.9,4.9,0,0,1,.07.94,0,0,0,0,0,0,0s0,0,0,0h0l.12-.38a.45.45,0,0,0,0-.28c0-.09-.08-.17-.11-.27a.22.22,0,0,0-.11-.14s0,0-.05,0v0c0,.23.11.45.08.68H27V19.1s0,0,0,0a0,0,0,0,0,0,0,1.33,1.33,0,0,0,0,.28,0,0,0,0,0,.07,0,1.49,1.49,0,0,1,0-.21H27v.18c0,.05.07,0,.07,0l0-.21H27a1.57,1.57,0,0,1-.09.43H27a2.36,2.36,0,0,1,0-.46.42.42,0,0,0,0-.31,0,0,0,0,0-.07,0,4.41,4.41,0,0,0-.05.81H27V19.2h-.08a2.81,2.81,0,0,1,0,.65h.08A.84.84,0,0,1,27,19.5h-.07l0,.32H27l-.1-.36a.29.29,0,0,0-.1-.18,0,0,0,0,0-.05,0h0a1.8,1.8,0,0,0-.11.5h.07a2.5,2.5,0,0,1,.07-.54h-.07v.52a0,0,0,1,0,.07,0l0-.23h-.07c0,.16,0,.32,0,.48a0,0,0,0,0,0,0s0,0,0,0a3.09,3.09,0,0,1,.14-.43H26.9l0,.54a0,0,0,0,0,0,0l0,0,.08-.33H27v.08h.07l0-.2H27c0,.08,0,.16-.05.25h.07a1.09,1.09,0,0,1,0-.26H27a.72.72,0,0,1-.05.41c-.1.15-.3.15-.46.15l0,0a8.74,8.74,0,0,1,.08-1.14h-.07l.08.61a0,0,0,0,0,.07,0v-.44h-.07a.81.81,0,0,1,0,.22h.07v-.61h-.07c0,.1,0,.21,0,.32h.07V19s0,0,0,0,0,0,0,0a.82.82,0,0,0-.06.44V20h.07a1.37,1.37,0,0,1,0-.57h-.07c0,.2,0,.4,0,.6h.07v-.42a0,0,0,0,0-.07,0l-.07.45h.07a.63.63,0,0,1,0-.19h-.08c0,.12,0,.24,0,.36h.07a1,1,0,0,1,0-.38h-.07a2.66,2.66,0,0,1,0,.28c0,.05.06.07.07,0a1.79,1.79,0,0,1,.2-.59l-.07,0a2.17,2.17,0,0,1-.14.68h.07a1.41,1.41,0,0,1,.07-.54l-.07,0-.08.32.07,0a1.17,1.17,0,0,1,.09-.24l-.06,0a1.51,1.51,0,0,1-.08.48h.07a1.27,1.27,0,0,1,0-.2,0,0,0,0,0-.07,0,.34.34,0,0,0-.06.15s.05.06.07,0a.61.61,0,0,1,.07-.14l-.07,0a.24.24,0,0,1,0,.12s0,.08.05.05a.47.47,0,0,1,.1-.1l-.05,0a.21.21,0,0,0-.06.1s0,0,0,.05h0l.12-.06,0,0-.16.17a0,0,0,0,0,0,.06,1.55,1.55,0,0,0,.5-.31,0,0,0,0,0,0-.06l-.37.15a0,0,0,0,0,0,.05s0,0,0,0a.41.41,0,0,0,.19,0l0-.07-.18.11.05.05a.59.59,0,0,1,.13-.18,0,0,0,0,0,0-.06h0a.34.34,0,0,0-.17.05l0,.06.17-.1a0,0,0,0,0,0,0,0,0,0,0,0,0,0l-.2.07,0,.06.36-.24s0-.08,0-.07l-.35.12,0,0c0-.07.09-.13.12-.17l.13-.14s0-.08-.05-.05a4,4,0,0,0-.3.28s0,.08,0,.06l.32-.2,0-.06-.23.18.05.05.2-.24-.06,0a.3.3,0,0,1-.13.19l.06,0a3.65,3.65,0,0,1,.08-.74s0,0,0,0l0,0-.18.66h.07a2.22,2.22,0,0,1,0-.63c0-.05-.06-.07-.07,0a4.9,4.9,0,0,0-.13.55h.07l0-.05a0,0,0,0,0-.05,0s0,0,0,0l0,.05s0,0,.05,0l0,0a4.9,4.9,0,0,1,.13-.55l-.07,0a2.5,2.5,0,0,0,0,.67,0,0,0,0,0,.07,0l.18-.66-.07,0a3.84,3.84,0,0,0-.08.76,0,0,0,0,0,0,0h0A.38.38,0,0,0,27,19.6s0-.07-.06,0l-.2.24a0,0,0,0,0,0,.05s0,0,.05,0l.23-.18s0-.08,0-.05l-.31.19,0,.06a4,4,0,0,1,.3-.28l-.05-.05-.21.23a.16.16,0,0,0-.06.13,0,0,0,0,0,0,0h0l.36-.12,0-.06-.35.24s0,.08,0,.07l.2-.07,0-.06-.17.1s0,.09,0,.06a.15.15,0,0,1,.13,0l0-.06a1.39,1.39,0,0,0-.15.19,0,0,0,0,0,0,0,0,0,0,0,0,0,0l.19-.1s0-.09,0-.07a.29.29,0,0,1-.16,0v.07l.36-.15,0-.06a1.33,1.33,0,0,1-.47.29l0,.06.15-.17s0,0,0,0,0,0,0,0l-.12.06.05,0,.06-.1s0-.07,0-.05a.57.57,0,0,0-.11.11l.05,0a.3.3,0,0,0,0-.16s0,0-.07,0a.8.8,0,0,0-.08.16l.07,0a.35.35,0,0,1,.06-.14h-.07a1.27,1.27,0,0,0,0,.2s0,0,0,0,0,0,0,0a1.41,1.41,0,0,0,.07-.5,0,0,0,0,0,0,0s0,0,0,0a1.45,1.45,0,0,0-.11.26c0,.05.06.07.07,0l.09-.32a.05.05,0,0,0,0-.05s0,0,0,0a1.33,1.33,0,0,0-.07.56s0,0,0,0,0,0,0,0a2.35,2.35,0,0,0,.14-.7s0,0,0,0h0a1.9,1.9,0,0,0-.2.61l.07,0c0-.1,0-.2,0-.3s0,0,0,0,0,0,0,0a1.07,1.07,0,0,0,0,.4s0,0,0,0a0,0,0,0,0,0,0c0-.12,0-.24,0-.36s0,0,0,0,0,0,0,0a.76.76,0,0,0,0,.21s.07.05.07,0l.07-.45h-.07v.42a0,0,0,0,0,0,0s0,0,0,0c0-.2,0-.4,0-.6a0,0,0,0,0,0,0s0,0,0,0h0a1.39,1.39,0,0,0,0,.61,0,0,0,0,0,.07,0v-.51a1,1,0,0,1,0-.49l-.06,0v.21s0,0,0,0a0,0,0,0,0,0,0,1.71,1.71,0,0,0,0-.32s0,0,0,0a0,0,0,0,0,0,0v.61a0,0,0,0,0,.07,0,1,1,0,0,0,0-.24,0,0,0,0,0,0,0s0,0,0,0v.44h.07l-.08-.61s-.07,0-.08,0a8.72,8.72,0,0,0-.07,1.14s0,0,0,0a.58.58,0,0,0,.49-.15.67.67,0,0,0,.09-.48s-.06-.06-.07,0a2.36,2.36,0,0,0,0,.28s.06,0,.08,0a2.56,2.56,0,0,0,.05-.27c0-.05-.07-.05-.08,0l0,.2s.06.05.07,0a.24.24,0,0,0,0-.12s0,0,0,0,0,0,0,0l-.08.33H27v-.54s0,0,0,0,0,0,0,0a3.59,3.59,0,0,0-.14.43h.07c0-.16,0-.32,0-.48s-.06,0-.07,0l0,.23h.08v-.52a0,0,0,0,0,0,0,0,0,0,0,0,0,0,2.1,2.1,0,0,0-.08.56,0,0,0,1,0,.07,0,2.08,2.08,0,0,1,.11-.48l-.05,0c.06.05.07.17.09.24l.08.26s.07,0,.07,0l0-.32s-.05-.06-.07,0a1,1,0,0,0-.08.38s.06,0,.07,0a4.66,4.66,0,0,0,0-.65s-.07,0-.07,0v.41s0,0,0,0a0,0,0,0,0,0,0,5.16,5.16,0,0,1,.05-.79h-.06a.58.58,0,0,1,0,.39,1.28,1.28,0,0,0,0,.34s0,0,0,0l0,0a1.8,1.8,0,0,0,.09-.45c0-.05-.07-.05-.07,0l0,.21h.07v-.18a0,0,0,0,0,0,0l0,0a1.64,1.64,0,0,0,0,.23h.07a1.14,1.14,0,0,1,0-.26H27v.33c0,.05.06.05.07,0,0-.23-.1-.45-.09-.68l-.05,0c.07,0,.08.12.1.19s.07.13.09.21a.63.63,0,0,1-.07.3l-.09.29H27a5.18,5.18,0,0,0-.08-1,0,0,0,0,0-.07,0,2.33,2.33,0,0,1-.07.25h.07a.17.17,0,0,1,0-.12l-.06,0a.69.69,0,0,1-.11.13l.06,0,.07-.19-.07,0a1.27,1.27,0,0,0,0,.28,0,0,0,0,0,0,0h0a.23.23,0,0,0,0-.18,0,0,0,0,0-.05,0h0a.75.75,0,0,0-.09.41,0,0,0,0,0,0,0,.05.05,0,0,0,0,0l.1-.34h-.07v.19a.07.07,0,0,0,0,.05s0,0,0,0l.1-.33h-.07V19H27a1.8,1.8,0,0,0-.06-.22.05.05,0,0,0-.05,0l0,0c-.08.11-.17.23-.33.21l0,.07a.65.65,0,0,1,.21-.16l-.05-.05a.48.48,0,0,1-.3.24l0,.05.16-.18c.06-.05.16-.16.24-.15l0-.06a.81.81,0,0,1-.25.27s0,.08,0,.07l.09,0,0-.06,0,0,.06,0h.05a.38.38,0,0,0,0-.15,0,0,0,0,0-.07,0v.34h.07v-.06s0,0,0,0a0,0,0,0,0,0,0v.17s.06,0,.07,0,0-.2,0-.3,0,0,0,0,0,0,0,0a2.12,2.12,0,0,0,0,.44s.06,0,.06,0l.07-.41h-.07v.31s.07.05.08,0a1,1,0,0,1,.07-.29h-.07v.39s0,0,0,0a0,0,0,0,0,0,0c0-.12,0-.24,0-.36s-.07-.05-.08,0,0,.22,0,.33h.07V19.1h-.07v.46h.07v-.29h-.07a2.16,2.16,0,0,0,.06.51,0,0,0,0,0,.07,0,5.61,5.61,0,0,0,0-.58,0,0,0,1,0-.07,0Z" transform="translate(-4.17 -1.62)" style="fill:#332627"/><path d="M26.46,19.13a1.35,1.35,0,0,1,0,.28.48.48,0,0,0,0,.12c.06.1,0-.07,0-.07a.76.76,0,0,0-.1-.37,0,0,0,0,0-.06,0s0,0,0,0a.27.27,0,0,0,.08.1,0,0,0,0,0,0,0,0,0,0,0,0,0,0,.12.12,0,0,0-.07-.07v.06l.17-.08c.06,0,.11-.08.12,0s.08,0,.07,0,0-.14-.06-.15a.23.23,0,0,0-.12.06l-.22.1a0,0,0,0,0,0,0h0l.05,0,.05-.05,0,0-.07,0c.06.06.06.51.17.48s0-.1,0-.14a1.17,1.17,0,0,0,0-.37c0-.05-.08,0-.07,0Z" transform="translate(-4.17 -1.62)" style="fill:#332627"/><polygon points="21.58 25.33 22.19 25.83 23.93 25.64 21.86 24.8 21.58 25.33" style="fill:#fccdee"/><path d="M26.31,20.28v-.52a1.51,1.51,0,0,1,0-.52h-.07c0,.07-.08.13-.1.21a1.85,1.85,0,0,0,0,.24v.6s.06,0,.07,0a1.59,1.59,0,0,1,.06-.3h-.08a1.22,1.22,0,0,1,0,.27h.08a.76.76,0,0,1,0-.15h-.07a1.89,1.89,0,0,1,.05.23s.07,0,.07,0c0-.35,0-.7,0-1a0,0,0,0,0-.07,0,1,1,0,0,0-.09.53h.07a.58.58,0,0,1,0-.32c0-.09.09-.16.13-.25a0,0,0,0,0,0-.05h0c-.09,0-.12.09-.15.16a1,1,0,0,0-.08.42h.07a.33.33,0,0,1,.08-.25s0-.09-.06,0a.46.46,0,0,0-.09.3s0,0,0,0a0,0,0,0,0,0,0,1.09,1.09,0,0,1,0-.26c0-.05.06-.25.13-.25l0-.06a2.2,2.2,0,0,0-.15.31.54.54,0,0,0,0,.31s.07,0,.07,0a.76.76,0,0,1,.08-.49l-.07,0c0,.34,0,.69,0,1h.07a1.43,1.43,0,0,0,0-.22s0,0-.05,0a0,0,0,0,0,0,0,.76.76,0,0,0,0,.15s0,0,0,0a0,0,0,0,0,0,0V20s0,0,0,0,0,0,0,0a1.8,1.8,0,0,0-.06.32h.07l0-.6a.59.59,0,0,1,0-.3c0-.06.07-.08.07-.15s-.05-.05-.07,0a1.63,1.63,0,0,0,0,.49v.57s0,0,0,0a0,0,0,0,0,0,0Z" transform="translate(-4.17 -1.62)" style="fill:#332627"/><path d="M30.63,15.17a1.54,1.54,0,0,0,.35.15l.43.2c.27.14.53.29.79.45s.5.31.74.48a3.93,3.93,0,0,1,.69.66s.09,0,0-.05a4.37,4.37,0,0,0-.65-.64c-.24-.18-.5-.33-.75-.49s-.52-.31-.79-.45l-.4-.19a3.12,3.12,0,0,1-.42-.18s-.08,0,0,.06Z" transform="translate(-4.17 -1.62)" style="fill:#84809e"/><path d="M33.64,17.15c.11,0,.2.22.27.3l.19.26.39.56a0,0,0,1,0,.06,0c-.15-.23-.31-.46-.47-.68l-.22-.28a.55.55,0,0,0-.2-.2s-.06.05,0,.07Z" transform="translate(-4.17 -1.62)" style="fill:#84809e"/><path d="M34.51,18.29a1.66,1.66,0,0,1,.31.51c.09.19.19.39.27.59a6.4,6.4,0,0,1,.34,1.21s.08,0,.07,0a6.65,6.65,0,0,0-.37-1.28c-.08-.19-.17-.39-.26-.58a1.88,1.88,0,0,0-.31-.48s-.08,0-.05.05Z" transform="translate(-4.17 -1.62)" style="fill:#84809e"/><path d="M35.43,20.56A11.43,11.43,0,0,1,35.64,22c0,.13,0,.28.17.27a1.39,1.39,0,0,0,.52-.21l0-.05a1.07,1.07,0,0,1-.19.28,0,0,0,0,0,0,0h0c.1,0,.9-.17.89,0l0,0c-.15,0-.91.29-.63.56,0,.06.14.08.2.14a.92.92,0,0,1,.17.29c.1.21.2.42.29.64.2.43.42.86.59,1.3a3.37,3.37,0,0,1,.1.34.22.22,0,0,0,.06.13c.06,0,.14,0,.2,0a1.54,1.54,0,0,1,.37,0l0-.07a1.46,1.46,0,0,0-.45.37s0,.09,0,.05a1.24,1.24,0,0,1,.44-.35,0,0,0,0,0,0-.07h-.29c-.08,0-.22.07-.26,0a1.05,1.05,0,0,1-.06-.24l-.09-.23c-.16-.37-.33-.73-.5-1.09L37,23.49a2.65,2.65,0,0,0-.23-.48.49.49,0,0,0-.13-.12l-.11-.06c-.09-.07,0-.17,0-.22a2,2,0,0,1,.54-.24.05.05,0,0,0,0,0c0-.13-.14-.15-.25-.15a4.51,4.51,0,0,0-.73.07l0,.06a1,1,0,0,0,.19-.29,0,0,0,0,0,0-.05h0l-.28.14-.12.05c-.07,0-.08,0-.13,0s-.05-.09-.06-.16a.49.49,0,0,0,0-.12l0-.28c0-.34-.1-.68-.17-1,0-.05-.08,0-.07,0Z" transform="translate(-4.17 -1.62)" style="fill:#84809e"/><path d="M37.92,26.09a1.78,1.78,0,0,1,.5.14l.11.05a0,0,0,0,1,0,0h0s0,.05,0,.05a1.27,1.27,0,0,1-.28,0c-.16,0-.31,0-.47,0a.24.24,0,0,0-.22.11s0,0,0,0h0a1.61,1.61,0,0,1,.72.57l0-.06h-.47c-.07,0-.17,0-.2.06a.19.19,0,0,0,0,.08.93.93,0,0,1,0,.23,1.9,1.9,0,0,1-.14.48,4.93,4.93,0,0,0-.31.71,2.19,2.19,0,0,1-.28.75s0,.07.06,0a1.83,1.83,0,0,0,.25-.61,3.83,3.83,0,0,1,.29-.73,1.74,1.74,0,0,0,.2-.67.76.76,0,0,0,0-.15s0-.09,0-.11a.48.48,0,0,1,.12,0h.45a0,0,0,0,0,0,0v0a1.79,1.79,0,0,0-.76-.6l0,0c.06-.1.2-.07.3-.06h.34a2.4,2.4,0,0,0,.28,0c.05,0,.11,0,.13-.06s-.15-.2-.22-.23a1.67,1.67,0,0,0-.54-.15s0,.07,0,.08Z" transform="translate(-4.17 -1.62)" style="fill:#84809e"/><path d="M37.5,28a1.26,1.26,0,0,1-.16.53l-.21.43a8.64,8.64,0,0,1-.52.89,3.91,3.91,0,0,1-1.39,1.29s0,.08,0,.06a3.89,3.89,0,0,0,1.42-1.31,7.55,7.55,0,0,0,.55-.95,2.7,2.7,0,0,0,.36-.94c0-.05-.07-.05-.08,0Z" transform="translate(-4.17 -1.62)" style="fill:#84809e"/><path d="M37.22,27.21a4.1,4.1,0,0,1-.36,1.19l.07,0a3.5,3.5,0,0,1,.2-1.1l-.07,0a5.85,5.85,0,0,1-.47,1.43l.07,0a2.83,2.83,0,0,1,.2-1l-.07,0c-.09.42-.19.84-.31,1.25,0,0,.05.06.07,0L37,27.68l-.07,0a6.76,6.76,0,0,1-.49,1.22l.07,0a7.49,7.49,0,0,1,.42-1.45s0-.06-.07,0l-.55,1.33.07,0a2.54,2.54,0,0,1,.29-.78l-.06,0a3.92,3.92,0,0,1-.49,1.06l.07,0a2.73,2.73,0,0,1,.28-.66l-.07,0a7,7,0,0,1-.68,1.37l.07,0a1.75,1.75,0,0,1,.36-.6l-.06,0a2.59,2.59,0,0,1-.52.93,0,0,0,0,0,0,.05h.05a2.22,2.22,0,0,0,.37-.38l-.06,0-.48.63s0,.07.06,0a3.28,3.28,0,0,0,.81-.93,0,0,0,0,0,0,0s0,0-.05,0a5.44,5.44,0,0,1-.73.93l.06,0a9.84,9.84,0,0,1,.9-1.22l-.06,0c-.14.28-.29.56-.46.83,0,.05,0,.08.06,0l.61-.79-.07,0a2.1,2.1,0,0,1-.33.67l.06,0a1,1,0,0,1,.28-.3l0,0a3.65,3.65,0,0,1-.35.68,0,0,0,0,0,0,0h0a2.09,2.09,0,0,0,.54-.53s0-.08-.06,0a2.35,2.35,0,0,1-.55.54l0,.06a2.46,2.46,0,0,1,.39-.4s0-.08,0-.06l-.57.41s0,.09,0,.06l.65-.46,0-.05a5.76,5.76,0,0,1-.56.66l.06,0,.46-1s0-.07-.05,0a3.27,3.27,0,0,0-.85.77l.06,0,1-1.29s0-.08-.05-.05a8,8,0,0,0-.73,1,0,0,0,0,0,0,.05l.75-.87-.06,0A4.54,4.54,0,0,1,36,30.36l.06,0a8.6,8.6,0,0,0,.67-1.09s0-.08-.06-.05L36,30l.06,0c.21-.47.45-.94.71-1.4,0,0,0,0,0,0h0a3.6,3.6,0,0,0-.81,1.05s0,0,0,.05a0,0,0,0,0,.05,0,9.65,9.65,0,0,0,.59-1s0-.08-.06-.05a11.36,11.36,0,0,0-.93,1.26,0,0,0,0,0,0,0,0,0,0,0,0,0,0l.81-.85-.06-.05-.8,1.14s0,.07.06.05a4.7,4.7,0,0,0,1-1.24s0-.08-.06,0c-.47.59-.94,1.19-1.38,1.8,0,0,0,.07.06.05a4.16,4.16,0,0,0,.78-.94,0,0,0,0,0,0-.05q-.64.48-1.26,1s0,.08,0,.06c.39-.19.77-.4,1.13-.62l0-.07-1,.75,0,.06a4.48,4.48,0,0,1,.64-.51l0-.07c-.37.28-.73.58-1.08.89,0,0,0,.08.05.05l1-.81s0-.08,0-.06a3.86,3.86,0,0,0-.71.63,0,0,0,0,0,0,.06,2.27,2.27,0,0,0,.79-.47s0-.08-.05-.06l-.78.56s0,.08,0,.07a3.34,3.34,0,0,0,1.09-.57s0-.08,0-.06a3.64,3.64,0,0,0-.65.34,0,0,0,0,0,0,.05,0,0,0,0,0,0,0,2.25,2.25,0,0,0,.49-.37,0,0,0,0,0,0,0h0a3.77,3.77,0,0,0-1.17.44s0,.09,0,.06c.4-.21.78-.44,1.16-.69a0,0,0,0,0,0,0s0,0-.05,0c-.52.22-1,.46-1.52.73,0,0,0,.08,0,.07a7.16,7.16,0,0,0,1-.44,0,0,0,0,0,0-.05l0,0a3.48,3.48,0,0,0-1,.49s0,.09,0,.06a8.69,8.69,0,0,0,1.08-.75s0-.07,0-.06a4.8,4.8,0,0,0-1.29.67s0,.09,0,.07a6.41,6.41,0,0,0,1.23-.68s0,0,0-.05,0,0-.05,0a10.37,10.37,0,0,0-1.21.78s0,.08,0,.06l1.16-.77a0,0,0,1,0,0-.06,6.05,6.05,0,0,0-.93.53l0,.07.6-.46,0-.06-.64.52,0,.05.91-.8s0-.08,0-.05l-.46.34a0,0,0,0,0,0,.07l.85-.66,0-.05-.8,1s0,.08.05.06a2.76,2.76,0,0,0,.77-.79s0-.06,0,0a3.23,3.23,0,0,0-1,.72s0,.08,0,.05l1.31-.86L35.76,30l-.91,1.1s0,0,0,.05h0a4,4,0,0,0,.66-.7s0-.06-.05,0a3.26,3.26,0,0,0-.7.46s0,.07,0,.05a9.2,9.2,0,0,0,1-.66l0-.06L35,31a0,0,0,0,0,0,0s0,0,.05,0a2.56,2.56,0,0,0,.59-.45,0,0,0,0,0,0-.05h0a2.24,2.24,0,0,0-.63.29l0,.06a11.11,11.11,0,0,1,1-.88s0-.09,0-.06l-.94.63s0,0,0,.05,0,0,0,0a.9.9,0,0,0,.4-.46s0,0-.05,0a1.63,1.63,0,0,0-.7.42s0,0,0,.05h0l.72-.36s0-.08,0-.06a4,4,0,0,0-.8.39l0,.06c.26-.21.53-.42.8-.61,0,0,0-.08,0-.06a2.17,2.17,0,0,0-.53.26s0,.09,0,.06a3.55,3.55,0,0,1,.64-.34l0-.07a2.66,2.66,0,0,1-.53.34l0,.05a4,4,0,0,1,.49-.68l-.06-.05-.64.8a0,0,0,0,0,0,.05,7.37,7.37,0,0,0,1.45-2.17,8.17,8.17,0,0,0,.74-2.69,11,11,0,0,0,.06-1.62h-.07l.26,1,.05,0a.79.79,0,0,1-.32-.49l-.06,0a3.22,3.22,0,0,1,.25.53s0,0,0,0a0,0,0,0,0,0,0,1.08,1.08,0,0,0-.12-.61s-.06,0-.06,0a1.25,1.25,0,0,0,.17.73s0,0,0,0,0,0,0,0a7.75,7.75,0,0,0-.28-.81,0,0,0,0,0-.07,0,3.1,3.1,0,0,0,.15.84s.08,0,.07,0a5,5,0,0,0-.15-.77s0,0,0,0a0,0,0,0,0,0,0v.82h.07l-.1-.79c0-.05-.08-.05-.07,0l0,.59s.07,0,.07,0a2.46,2.46,0,0,0-.09-.67s0,0,0,0a.07.07,0,0,0,0,.05h0A12.68,12.68,0,0,0,37,26a0,0,0,0,0,.08,0A5.32,5.32,0,0,0,37,24.66s-.07,0-.08,0c0,.54,0,1.08,0,1.62H37a11.3,11.3,0,0,1-.24-1.84s0,0,0,0a0,0,0,0,0,0,0v1.2h.07V24.4h-.07l.13.72a0,0,0,0,0,.07,0c0-.5,0-1,0-1.5a0,0,0,0,0,0,0s0,0,0,0h0a6,6,0,0,0,.05.85s.07,0,.08,0a1.63,1.63,0,0,0-.08-.58,0,0,0,0,0-.05,0s0,0,0,0a4.07,4.07,0,0,0,0,.78,0,0,0,0,0,0,0s0,0,0,0a6.77,6.77,0,0,0,0-.78h-.07a1.47,1.47,0,0,0,.2.54,0,0,0,0,0,.05,0s0,0,0,0a1.5,1.5,0,0,0-.13-.62s0,0,0,0a0,0,0,0,0,0,0,.59.59,0,0,0,.13.48H37v0a.64.64,0,0,0-.16-.56s0,0-.05,0,0,0,0,0a1.86,1.86,0,0,0,.21.72,0,0,0,0,0,.06,0,.88.88,0,0,0-.19-.63,0,0,0,0,0-.06,0,0,0,0,0,0,0,0,6.59,6.59,0,0,1-.09,4.92l.07,0a26,26,0,0,1,.47-3.51H37.2a8.29,8.29,0,0,1-.07,2.11h.07l.32-2.49s-.07-.05-.07,0a21.06,21.06,0,0,1-.78,3.52l.07,0L37.06,27A0,0,0,0,0,37,27l-.49,1.92c0,.05,0,.06.07,0l.46-1.1-.07,0a4.94,4.94,0,0,1-.47,1.5h.07a.66.66,0,0,1,.18-.57l-.06,0a3.31,3.31,0,0,1-.32,1.07s0,0,0,.05a0,0,0,0,0,.05,0,14.49,14.49,0,0,0,1.24-2H37.6a3,3,0,0,1-1,2l.06,0,.88-2.22s0-.07-.06,0A5.51,5.51,0,0,0,37,29s.06.06.07,0a1.35,1.35,0,0,1,.2-.44l-.06,0-.07.53s.06,0,.07,0l.37-.9-.07,0c-.11.33-.23.65-.37,1,0,0,0,.08.07,0l.42-.95a0,0,0,1,0-.06,0L37,29.21l.06,0,.28-.57s0-.08-.07,0l-.27.57s0,.08.06,0l.57-1.06-.06,0-.43.95.07,0c.13-.32.26-.64.37-1,0,0-.06-.06-.07,0l-.36.89h.07l.06-.53s-.05,0-.07,0A1.69,1.69,0,0,0,37,29l.07,0a5.61,5.61,0,0,1,.47-1.34l-.07,0-.88,2.22a0,0,0,0,0,.06,0,3.17,3.17,0,0,0,1-2.07,0,0,0,0,0-.07,0,15,15,0,0,1-1.24,2l.06,0a3.16,3.16,0,0,0,.33-1.11,0,0,0,0,0,0,0h0a.76.76,0,0,0-.2.64s0,0,.06,0A5.11,5.11,0,0,0,37,27.84a.05.05,0,0,0,0-.05s0,0,0,0h0l-.46,1.09.07,0L37.06,27,37,27l-.32,1.41a.05.05,0,0,0,0,.05s0,0,0,0a21.06,21.06,0,0,0,.78-3.52h-.07l-.32,2.48s.07.05.07,0a8.93,8.93,0,0,0,.08-2.13s-.07-.05-.08,0a26,26,0,0,0-.46,3.53s0,0,.06,0a6.7,6.7,0,0,0,.1-5l-.06,0a.76.76,0,0,1,.18.58l.07,0a1.78,1.78,0,0,1-.2-.68l-.06,0a.57.57,0,0,1,.14.5l.06,0a.54.54,0,0,1-.11-.41h-.07a1.28,1.28,0,0,1,.11.58l.07,0a1.4,1.4,0,0,1-.19-.53,0,0,0,0,0-.07,0c0,.26,0,.52,0,.78h.07a4.07,4.07,0,0,1,0-.78h-.08a1.2,1.2,0,0,1,.08.56h.07a5.92,5.92,0,0,1,0-.84h-.07c0,.5,0,1,0,1.5h.07l-.13-.72a0,0,0,0,0-.07,0v1.25a0,0,0,0,0,0,0s0,0,0,0V24.44h-.07a9.67,9.67,0,0,0,.24,1.86s.07,0,.07,0c0-.54,0-1.08,0-1.62H36.9A4.77,4.77,0,0,1,37,26h.07a12.68,12.68,0,0,1,0-1.63H37a2.37,2.37,0,0,1,.09.65h.07l0-.59H37l.1.79c0,.05.08.05.08,0v-.82h-.07a6.58,6.58,0,0,1,.14.75h.07a3.28,3.28,0,0,1-.14-.82h-.07c.1.27.19.54.27.82l.07,0a1.14,1.14,0,0,1-.17-.7l-.07,0a1,1,0,0,1,.11.57h.07a3,3,0,0,0-.25-.55s0,0-.05,0a.05.05,0,0,0,0,0,.87.87,0,0,0,.36.54s.06,0,0-.05l-.26-1a.05.05,0,0,0,0,0s0,0,0,0h0a10.4,10.4,0,0,1-.25,2.78,8.82,8.82,0,0,1-1.06,2.49A6.38,6.38,0,0,1,35,30.37l0,.05.64-.8s0-.08,0-.05a4.88,4.88,0,0,0-.49.7,0,0,0,0,0,0,.05h0a4.32,4.32,0,0,0,.53-.34s0-.09,0-.07a3.48,3.48,0,0,0-.66.35l0,.06a2.23,2.23,0,0,1,.51-.26l0-.06c-.28.19-.55.4-.81.61a0,0,0,0,0,0,.06,4.78,4.78,0,0,1,.79-.38l0-.07-.72.36,0,.06a1.44,1.44,0,0,1,.67-.4l-.05,0a.74.74,0,0,1-.36.42l0,.06.94-.63L36,30a11.22,11.22,0,0,0-1.07.89s0,.08.05.05a1.88,1.88,0,0,1,.61-.28l0-.06A2.48,2.48,0,0,1,35,31l0,0,.8-.82s0-.08,0-.05a11,11,0,0,1-1,.66l0,.06a3.15,3.15,0,0,1,.69-.45l0-.05a3.88,3.88,0,0,1-.65.69l0,.05.92-1.1s0-.08,0-.05l-1.3.86,0,.06a3.43,3.43,0,0,1,.94-.71l-.05-.05a2.55,2.55,0,0,1-.74.76l0,.06.8-1s0-.08,0-.06l-.86.66,0,.06.45-.35,0-.06-.91.81s0,.08,0,.05l.64-.52s0-.08,0-.06l-.61.46s0,.09,0,.06a4.75,4.75,0,0,1,.93-.53l0-.06L34,31.22l0,.06a14,14,0,0,1,1.22-.78l0-.06a5.49,5.49,0,0,1-1.21.67l0,.07a4.27,4.27,0,0,1,1.27-.66l0-.06a9.62,9.62,0,0,1-1.07.73l0,.07a3,3,0,0,1,.94-.48l0-.07a6.86,6.86,0,0,1-1,.43l0,.07c.49-.27,1-.51,1.52-.74l0-.06c-.37.25-.76.48-1.16.7l0,.06a3.65,3.65,0,0,1,1.15-.44l0-.06a2.35,2.35,0,0,1-.47.36l0,.06a3.92,3.92,0,0,1,.64-.34l0-.06a3,3,0,0,1-1.06.55l0,.07.78-.56,0-.06a2,2,0,0,1-.76.45l0,.06a3.41,3.41,0,0,1,.7-.61l0-.06-1,.82,0,0c.34-.31.69-.6,1.06-.88,0,0,0-.09,0-.06a5.29,5.29,0,0,0-.65.52s0,.08,0,.06l1-.75s0-.09,0-.06c-.37.22-.75.43-1.13.62l0,.06c.4-.34.82-.67,1.25-1l0-.05a3.81,3.81,0,0,1-.77.92l.05.05q.66-.92,1.38-1.8l-.06,0a4.57,4.57,0,0,1-1,1.22l.06,0,.79-1.14s0-.07,0,0l-.81.85,0,0a11.5,11.5,0,0,1,.92-1.25l0,0a8.51,8.51,0,0,1-.59,1l.06,0a3.49,3.49,0,0,1,.8-1l0-.05c-.26.46-.5.93-.72,1.4,0,0,0,.08.06.05l.62-.76-.06,0A7.53,7.53,0,0,1,36,30.36s0,.08.06,0a4.37,4.37,0,0,0,.69-1.25s0,0,0,0h0l-.75.87L36,30a7.22,7.22,0,0,1,.72-1l-.06,0-1,1.29s0,.08.06,0a3.37,3.37,0,0,1,.84-.76l0-.05-.46,1s0,0,0,.05h0a5.35,5.35,0,0,0,.58-.68,0,0,0,0,0-.05,0l-.66.46,0,.06.57-.4,0-.06a2.52,2.52,0,0,0-.4.4s0,.08,0,.05a2.13,2.13,0,0,0,.56-.56l-.06,0a1.8,1.8,0,0,1-.52.51l.05.05a3.24,3.24,0,0,0,.36-.69,0,0,0,0,0,0-.05h0a1.08,1.08,0,0,0-.31.33s0,.07.06,0a2.22,2.22,0,0,0,.34-.69s0-.06-.07,0l-.6.79L36,30c.17-.27.32-.55.47-.84,0,0,0-.08-.06,0a9.76,9.76,0,0,0-.91,1.23s0,0,0,.05h0a6.19,6.19,0,0,0,.75-.94l-.06,0a3.51,3.51,0,0,1-.8.92l.06,0,.48-.63s0-.08-.06-.05a2.65,2.65,0,0,1-.37.38l.05,0a2.58,2.58,0,0,0,.54-1s0,0,0,0h0a1.77,1.77,0,0,0-.38.63s0,.06.06,0a7.2,7.2,0,0,0,.69-1.39s0-.06-.06,0a2.54,2.54,0,0,0-.29.68s0,0,0,0,0,0,0,0a4,4,0,0,0,.5-1.09s0,0,0,0,0,0,0,0a2.69,2.69,0,0,0-.3.79s0,0,0,0a.05.05,0,0,0,0,0l.55-1.33-.07,0a7.49,7.49,0,0,0-.42,1.45s0,.07.06,0a6.4,6.4,0,0,0,.5-1.25s-.06-.06-.07,0L36.48,29l.07,0c.12-.41.22-.83.31-1.25,0,0,0,0,0,0s0,0,0,0a2.92,2.92,0,0,0-.2,1.05s0,.06.06,0a6.1,6.1,0,0,0,.48-1.44.05.05,0,0,0,0,0s0,0,0,0a3.57,3.57,0,0,0-.2,1.12s0,.05.06,0a4,4,0,0,0,.37-1.21s-.06-.07-.07,0Z" transform="translate(-4.17 -1.62)" style="fill:#84809e"/><path d="M36.89,28c0,.27,0,.55,0,.83a0,0,0,0,0,0,0s0,0,0,0l.12-.43s0,0,0,0,0,0,0,0a6.4,6.4,0,0,1-.52,1.27l.07,0a5.18,5.18,0,0,1,.55-1s0-.07-.06,0c-.32.41-.65.81-.94,1.25,0,0,0,.08.06,0l.82-1-.06,0a2,2,0,0,1-.14.63l.07,0,0-.22c0-.05-.06-.07-.07,0l0,.22s0,0,0,0,0,0,0,0a2.1,2.1,0,0,0,.14-.65,0,0,0,0,0,0,0s0,0,0,0l-.82,1,.06.05a13.82,13.82,0,0,1,.93-1.24l-.06,0a4.6,4.6,0,0,0-.56,1.05s0,.07.07,0a7.25,7.25,0,0,0,.52-1.29l-.07,0-.12.43H37c0-.28,0-.55,0-.83a0,0,0,1,0-.07,0Z" transform="translate(-4.17 -1.62)" style="fill:#84809e"/><path d="M37.34,26.93a2.78,2.78,0,0,1-.11.95.14.14,0,0,0,.28.07,3.52,3.52,0,0,0,.12-1c0-.19-.3-.19-.29,0Z" transform="translate(-4.17 -1.62)" style="fill:#84809e"/><path d="M37.2,27.74c.25,1-.69,1.76-1.07,2.55-.07.14.11.31.23.17a4.59,4.59,0,0,0,.65-1c.07-.17-.17-.32-.25-.15a3.89,3.89,0,0,1-1.29,1.47.15.15,0,0,0,.15.25,4.49,4.49,0,0,0,.59-.37c.15-.1,0-.34-.14-.25a8.61,8.61,0,0,1-1.5.72c-.18.06-.1.34.07.28a8.71,8.71,0,0,0,1.57-.75l-.14-.25a5.27,5.27,0,0,1-.59.37l.14.25A4.2,4.2,0,0,0,37,29.43l-.25-.15a3.67,3.67,0,0,1-.61,1l.23.17c.42-.88,1.38-1.68,1.1-2.76a.14.14,0,0,0-.28.07Z" transform="translate(-4.17 -1.62)" style="fill:#84809e"/><path d="M38.13,27l-.39-.08c-.08,0-.15,0-.21,0a.08.08,0,0,0,0,.11h0a.48.48,0,0,0,.28.06c.09,0,.1-.15,0-.15h-.46a.08.08,0,0,0-.07.05c0,.1.05.11.13.12s.1.14.12.22l.07.27c0,.08.15.06.14,0l0-.44c0-.09-.15-.09-.15,0v.54a.08.08,0,1,0,.15,0v-.25a.08.08,0,0,0-.15,0v.42h.15a2.82,2.82,0,0,1,0-.58c0-.09-.11-.13-.13,0l-.16.7.14,0a1.45,1.45,0,0,1,0-.36l-.14,0a3.29,3.29,0,0,1-.05.54h.14a1,1,0,0,1,0-.38l0-.37c0-.1-.13-.1-.14,0l0,.42a.87.87,0,0,0,0,.36c0,.07.13.08.14,0a3.55,3.55,0,0,0,.05-.57c0-.08-.12-.1-.14,0a1.35,1.35,0,0,0,0,.4c0,.07.12.1.14,0l.15-.7-.14,0a3.23,3.23,0,0,0,0,.62.08.08,0,1,0,.15,0v-.42h-.15v.25h.15v-.54h-.14l.05.44.14,0a2,2,0,0,0-.12-.49.18.18,0,0,0-.11-.1h-.09c-.05,0,0,0,0,.07l-.07.05h.46V27a.28.28,0,0,1-.2,0V27s.2,0,.23,0l.24.05c.09,0,.13-.13,0-.14Z" transform="translate(-4.17 -1.62)" style="fill:#84809e"/><path d="M38.13,27a.62.62,0,0,0-.25-.11.08.08,0,0,0-.06.14.81.81,0,0,0,.48.13.07.07,0,0,0,.07-.07.08.08,0,0,0,0,0l-.26-.28-.1.1.08.08,0-.12c-.12,0-.34,0-.43.14a.14.14,0,0,0,0,.19s0,0,.05,0l0-.14a.22.22,0,0,0-.23.06s0,.12,0,.12.06,0,.06.07a.08.08,0,0,0,.14,0,.48.48,0,0,0,.07-.21l-.14,0a1.5,1.5,0,0,1,0,.22h.14c0-.11.11-.17.06-.27s-.14-.09-.22-.08l0,.14.21-.09c.06,0,0-.12,0-.14a.61.61,0,0,0-.27,0v.14l.24,0a.07.07,0,0,0,.07-.07.08.08,0,0,0-.05-.07,1.13,1.13,0,0,0-.32-.06v.15h.34v-.15h-.31a.08.08,0,1,0,0,.15,1.06,1.06,0,0,0,.25,0,.07.07,0,0,0,.05-.09l0,0-.25-.14-.06.13.29.06c.07,0,.13-.07.07-.12a1.06,1.06,0,0,0-.26-.17l0,.13a.34.34,0,0,1,.17.05l.06-.14a1.52,1.52,0,0,0-.2-.06h0s0,0,0,0a.61.61,0,0,0,.12-.05,1.22,1.22,0,0,1,.43-.08v-.14a2.77,2.77,0,0,0-.5.1c-.06,0-.07.13,0,.14a3.64,3.64,0,0,0,.57,0,.07.07,0,0,0,0-.14.62.62,0,0,0-.33,0c-.06,0-.07.13,0,.14a1.35,1.35,0,0,0,.45,0c.09,0,.27,0,.26-.17s-.54-.1-.66,0,0,.13,0,.13a1.48,1.48,0,0,0,.42,0c.09,0,.1-.15,0-.15l-.48,0,0,.14a.51.51,0,0,1,.15-.07.07.07,0,0,0,0-.14h-.57c-.1,0-.09.14,0,.15a1.94,1.94,0,0,0,.54,0,.08.08,0,0,0,0-.15,2,2,0,0,0-.77.08.07.07,0,0,0,0,.09.08.08,0,0,0,.07.05,5,5,0,0,0,.67,0c.07,0,.1-.13,0-.15a1.09,1.09,0,0,0-.36,0c-.08,0-.06.14,0,.14a1.94,1.94,0,0,0,.59-.06c.09,0,.06-.13,0-.14a.57.57,0,0,1-.25-.06v.14a1.26,1.26,0,0,1,.28,0,.07.07,0,0,0,0-.14A1.28,1.28,0,0,1,38,26l0,.12h0l.05-.12a1.1,1.1,0,0,0-.48.07l0,.13c.25-.18.51-.34.77-.5a.07.07,0,0,0,0-.12.45.45,0,0,0-.39,0,3.29,3.29,0,0,0-.49.26c-.06,0,0,.16.06.13l.46-.15L38,25.71a4,4,0,0,0-.59.38l.11.09a1.82,1.82,0,0,1,.65-.55c.06,0,0-.15,0-.14a1.59,1.59,0,0,0-.64.23.07.07,0,0,0,.07.13.33.33,0,0,1,.19-.06l-.07-.11a.25.25,0,0,1-.17.11c-.09,0-.05.15,0,.14a.37.37,0,0,0,.26-.18.06.06,0,0,0,0-.09h0a.48.48,0,0,0-.26.07l.07.13a1.31,1.31,0,0,1,.57-.21l0-.14a1.77,1.77,0,0,0-.69.61c0,.07.05.13.11.09a3.41,3.41,0,0,1,.57-.36.07.07,0,0,0-.06-.13l-.46.15,0,.13.33-.18c.11,0,.28-.16.41-.11v-.12c-.26.15-.52.32-.77.49-.06.05,0,.16,0,.14a1.17,1.17,0,0,1,.45-.06.08.08,0,0,0,0-.13A.11.11,0,0,0,38,26h0a.09.09,0,0,0,0,.11h0a.94.94,0,0,0,.3.05v-.14a1.65,1.65,0,0,0-.32,0,.07.07,0,0,0,0,.14,1,1,0,0,0,.29.07l0-.15a2,2,0,0,1-.55.06l0,.14a.88.88,0,0,1,.28,0l0-.14a3.75,3.75,0,0,1-.67,0l0,.14a1.8,1.8,0,0,1,.73-.07l0-.14a1.43,1.43,0,0,1-.51,0v.15h.58l0-.14a.75.75,0,0,0-.18.08c-.06,0,0,.14,0,.14l.48,0v-.15a2,2,0,0,1-.42,0l0,.13a.65.65,0,0,1,.21-.06h.18a1.47,1.47,0,0,1-.47,0v.14a.53.53,0,0,1,.25,0l0-.14a3.08,3.08,0,0,1-.53,0v.14a3.63,3.63,0,0,1,.45-.1c.09,0,.1-.14,0-.14a1.32,1.32,0,0,0-.34,0,1,1,0,0,0-.33.13c-.2.17.21.26.3.28a.07.07,0,0,0,.06-.13.54.54,0,0,0-.25-.06.08.08,0,0,0,0,.14.72.72,0,0,1,.24.14l.07-.12-.29-.05c-.08,0-.14.09-.06.13l.26.13,0-.13a.54.54,0,0,1-.22,0v.15h.32c.09,0,.09-.14,0-.15s-.23,0-.34,0a.07.07,0,1,0,0,.14.92.92,0,0,1,.28.05l0-.14-.24,0c-.09,0-.09.15,0,.14a.46.46,0,0,1,.23,0l0-.14-.2.09c-.08,0,0,.15.05.13s0,0,0,0a.14.14,0,0,0,0,.06.19.19,0,0,0,0,.15.07.07,0,0,0,.13,0,1.15,1.15,0,0,0,0-.26c0-.08-.13-.1-.14,0a.48.48,0,0,1-.06.18l.13,0a.2.2,0,0,0-.17-.17l0,.12a.07.07,0,0,1,.09,0h0c.09,0,.12-.11,0-.14A.53.53,0,0,0,38,27l.19,0a.08.08,0,0,0,0-.09l0,0-.08-.07c-.07-.06-.17,0-.11.1l.27.28,0-.12a.73.73,0,0,1-.41-.12l0,.13a.4.4,0,0,1,.21.09c.08.06.15-.07.08-.12Z" transform="translate(-4.17 -1.62)" style="fill:#84809e"/><path d="M37.5,24.84a1.53,1.53,0,0,0,.11.47l.12-.07-.06-.08c-.05-.06-.13,0-.12.07s.06.3.1.44l.12-.07a.9.9,0,0,1-.13-.28c0-.08-.13-.05-.14,0a2.44,2.44,0,0,0,0,.54l.14,0a1.67,1.67,0,0,1-.12-.7l-.15,0a1.49,1.49,0,0,0,.09.3.07.07,0,0,0,.14,0V25h-.15l0,.28a.08.08,0,0,0,.15,0,1.38,1.38,0,0,0-.16-.93l-.53-1c0-.07-.14,0-.13.06a12.58,12.58,0,0,0,.5,1.69c0,.06.12.07.13,0a.93.93,0,0,0,0-.33l-.14,0,.06.21a.07.07,0,0,0,.14,0V24.7c0-.09-.15-.09-.14,0l0,1.29a5.58,5.58,0,0,0,.08,1.23c0,.09.13.06.14,0a3.85,3.85,0,0,0,0-.48c0-.09-.15-.09-.15,0v.21a.08.08,0,0,0,.15,0v-.85c0-.09-.14-.09-.15,0a8,8,0,0,1-.38,2l.14,0a2.21,2.21,0,0,1,.2-.74l-.13,0q0,.33-.12.66l.13,0a6.29,6.29,0,0,0,.12-1.62c0-.09-.15-.09-.15,0a6.43,6.43,0,0,1-.1,1.58c0,.09.11.13.13,0a5.73,5.73,0,0,0,.13-.7c0-.07-.11-.1-.13,0a2.13,2.13,0,0,0-.22.81c0,.09.11.1.14,0a8.76,8.76,0,0,0,.39-2h-.14v.85h.15v-.21H37.5a2.57,2.57,0,0,1,0,.48h.14a2.61,2.61,0,0,1-.06-.62V26l0-1.24h-.14V25l.14,0-.06-.22c0-.07-.15-.06-.14,0a.93.93,0,0,1,0,.29h.14a12.16,12.16,0,0,1-.5-1.69l-.13.06.47.88a1.35,1.35,0,0,1,.2.93l.14,0,0-.28a.08.08,0,0,0-.15,0v.46h.14a1.09,1.09,0,0,1-.08-.31c0-.08-.14-.06-.15,0a1.71,1.71,0,0,0,.14.74.07.07,0,0,0,.08.05s.07-.05.06-.08a1.74,1.74,0,0,1,0-.51l-.14,0a.73.73,0,0,0,.17.34c0,.06.14,0,.12-.07a2.16,2.16,0,0,1-.1-.44l-.12.07.06.08c0,.05.14,0,.12-.07a1.36,1.36,0,0,1-.11-.43c0-.1-.15-.1-.14,0Z" transform="translate(-4.17 -1.62)" style="fill:#84809e"/><path d="M37.36,24.38l-.18-.46c0-.07-.15-.07-.14,0a.58.58,0,0,0,.17.37.07.07,0,0,0,.12-.07c-.11-.35-.24-.69-.38-1,0-.06-.1-.08-.13,0a.17.17,0,0,0,0,.17c0,.08.17.05.14,0a1.82,1.82,0,0,0-.49-.75.08.08,0,0,0-.13.05,1.52,1.52,0,0,0,.31.89,1.19,1.19,0,0,1,.14.52c0,.17,0,.35,0,.53h.14l-.1-.81c0-.09-.14-.1-.15,0,0,.32,0,.64,0,1h.15a3.23,3.23,0,0,1,0-.76l-.14,0c0,.26,0,.52,0,.79h.15v-.41c0-.08-.13-.1-.14,0l-.05.35.14,0a1.27,1.27,0,0,0,0-.28c0-.08-.12-.07-.14,0a.65.65,0,0,0,0,.31l.13-.06a1.24,1.24,0,0,1-.15-.86h-.14l.06.43c0,.07.13.07.14,0a.71.71,0,0,1,.13-.31l-.13,0-.08.36.14,0v-.16c0-.1-.13-.09-.14,0l0,.22c0,.08.13.1.14,0a7.72,7.72,0,0,0,.09-1.18l-.13,0,.32.7c0,.08.16,0,.13-.05-.13-.34-.27-.68-.43-1a.08.08,0,0,0-.14,0,1,1,0,0,0,.14.44.08.08,0,0,0,.14-.06,3.39,3.39,0,0,0-.2-.53.08.08,0,0,0-.14,0,1,1,0,0,0,.06.53,1,1,0,0,1,.09.58h.14q-.14-.36-.24-.72c0-.07-.15-.06-.14,0a2.52,2.52,0,0,0,.08.54l.1-.08-.21-.11a1,1,0,0,1-.22-.13s0-.12,0-.18v-.24c0-.05-.05-.07-.09-.07a2.25,2.25,0,0,1-.44,0c-.08,0-.09,0-.11-.09l0-.23c0-.09-.15-.09-.14,0s0,.39.15.45a.66.66,0,0,0,.28,0L36,23l-.09-.07c0,.1,0,.21,0,.31a.28.28,0,0,0,0,.18.49.49,0,0,0,.2.13l.3.16a.08.08,0,0,0,.1,0,.13.13,0,0,0,0-.06,2.74,2.74,0,0,1-.08-.5l-.14,0q.11.36.24.72a.07.07,0,0,0,.09.05.12.12,0,0,0,.05-.05c.12-.39-.25-.73-.15-1.11h-.13a3,3,0,0,1,.19.5l.13-.06a.77.77,0,0,1-.12-.37l-.14,0a8.35,8.35,0,0,1,.42,1l.14-.06-.33-.7c0-.07-.13,0-.13,0a7.2,7.2,0,0,1-.09,1.14l.15,0,0-.22h-.14v.16c0,.08.13.1.15,0l.08-.37a.07.07,0,0,0-.13-.05.61.61,0,0,0-.14.34h.13l-.06-.43c0-.08-.12-.07-.14,0a1.38,1.38,0,0,0,.17,1c0,.08.14,0,.13-.05a.49.49,0,0,1,0-.24H36.6a.65.65,0,0,1,0,.24.08.08,0,0,0,.15,0l0-.35-.14,0v.41c0,.1.14.09.15,0,0-.26,0-.52,0-.78a.07.07,0,0,0-.14,0,3.5,3.5,0,0,0,0,.79.08.08,0,1,0,.15,0c0-.32,0-.64,0-1h-.15l.11.81c0,.09.15.1.14,0a2.65,2.65,0,0,0-.09-1c-.14-.32-.4-.6-.35-1l-.13.05a1.58,1.58,0,0,1,.46.68l.14,0v0l-.13,0c.14.34.27.69.38,1l.12-.07a.45.45,0,0,1-.13-.28L37,24l.18.47c0,.08.17,0,.14,0Z" transform="translate(-4.17 -1.62)" style="fill:#84809e"/><path d="M36.48,23.56a.78.78,0,0,1-.15-.57l-.15,0,.11.35a.07.07,0,0,0,.14,0l0-.42c0-.09-.15-.09-.15,0v.31a.08.08,0,0,0,.15,0,4.93,4.93,0,0,0,0-.55.07.07,0,0,0-.07-.07h0a.07.07,0,0,0,0,.06.08.08,0,0,0,.08.09h0c.08,0,.16-.12.23-.16a1.6,1.6,0,0,1,.31-.1.2.2,0,0,0,.12-.18.07.07,0,0,0-.07-.07h0l-.21.08c-.06,0,0,.15,0,.14a.68.68,0,0,0,.27-.1s.05-.12,0-.14c-.27,0-.62,0-.72.27a.07.07,0,0,0,0,.09h0a.63.63,0,0,0,.25-.09.07.07,0,0,0,0-.09.07.07,0,0,0-.08,0,1.58,1.58,0,0,0-.31.09l.06.13.43-.23-.11-.06c0,.25-.28.27-.36.48s0,.4-.05.58h.11a.53.53,0,0,1-.12-.14.07.07,0,0,0-.13.07.76.76,0,0,0,.13.17c.06,0,.15,0,.13-.07a1.81,1.81,0,0,1-.07-.69h-.15v.54l.15,0a1.94,1.94,0,0,1,0-.59h-.14A.55.55,0,0,1,36,23l.14.06a2.93,2.93,0,0,1,.13-.57l-.15,0v.35h.15a.67.67,0,0,1,.11-.41c0-.05,0-.11-.09-.1s-.19.14-.23.26,0,.17-.15.21a.53.53,0,0,1-.22,0c-.06,0-.21,0-.23,0s.1-.18.16-.22.32-.21.48-.31L36,22.17a1.18,1.18,0,0,1-.26.58l.12.09a.53.53,0,0,1,.27-.24l-.08-.13a1.46,1.46,0,0,1-.36.16c-.07,0-.06.15,0,.15H36l0-.15-.25.07a.08.08,0,0,0,0,.15,1.49,1.49,0,0,0,.47-.07.07.07,0,0,0,0-.14,4.87,4.87,0,0,0-.55.06c-.09,0-.06.13,0,.14a.59.59,0,0,0,.32-.06c.07,0,0-.15-.06-.13a2.33,2.33,0,0,1-.46.08l0,.15a8.39,8.39,0,0,0,1-.45.08.08,0,0,0,0-.1v0a.26.26,0,0,0-.33,0,1.71,1.71,0,0,0-.2.18,1.39,1.39,0,0,1-.28.12l.08.1a.53.53,0,0,1,.25-.17c.07,0,.07-.15,0-.14a.26.26,0,0,0-.22.15l-.05.07,0,0,0-.06s.14-.07.17-.09a.82.82,0,0,0,.49-.42.07.07,0,0,0,0-.09h0a.75.75,0,0,0-.36.13.07.07,0,0,0,0,.1.08.08,0,0,0,.06,0,.59.59,0,0,0,.5-.2c.06-.07,0-.18-.1-.11a.43.43,0,0,1-.4.16l0,.14a.81.81,0,0,1,.29-.12L36.11,22a.67.67,0,0,1-.38.32c-.11.05-.27.1-.3.24a.16.16,0,0,0,.12.2h.06a.25.25,0,0,0,.16-.1c0-.05.08-.17.16-.17l0-.14a.66.66,0,0,0-.33.24c0,.05,0,.12.08.1a.87.87,0,0,0,.34-.15c.08-.06.23-.27.33-.15v-.12a6,6,0,0,1-.92.44c-.07,0-.06.15,0,.14a4,4,0,0,0,.5-.09l-.06-.14a.42.42,0,0,1-.25,0l0,.15.51-.06v-.14a1.12,1.12,0,0,1-.44.06l0,.14.24-.07a.07.07,0,0,0,0-.14h-.24l0,.14a2.83,2.83,0,0,0,.4-.17c.08-.05,0-.17-.08-.13a.77.77,0,0,0-.32.3c0,.06.06.15.12.08a1.28,1.28,0,0,0,.29-.65c0-.05,0-.11-.1-.08l-.33.21a1.65,1.65,0,0,0-.27.19c-.09.1-.19.36,0,.43a.75.75,0,0,0,.3,0,.63.63,0,0,0,.27,0,.33.33,0,0,0,.18-.17c0-.1,0-.27.17-.29l-.08-.11a.91.91,0,0,0-.13.48.08.08,0,1,0,.15,0v-.35a.07.07,0,0,0-.14,0A2.93,2.93,0,0,0,36,23c0,.07.09.14.13.06a.76.76,0,0,0,.05-.49c0-.07-.12-.07-.14,0a2.09,2.09,0,0,0,0,.66c0,.08.14.06.14,0V22.7c0-.09-.14-.09-.15,0a2,2,0,0,0,.08.72l.12-.07a.35.35,0,0,1-.11-.13l-.13.07a.61.61,0,0,0,.15.17s.09,0,.11,0a.58.58,0,0,0,0-.29.73.73,0,0,1,0-.33c0-.11.18-.14.26-.22a.37.37,0,0,0,.1-.3.07.07,0,0,0-.07-.07h0l-.43.24c-.07,0,0,.16,0,.13a1.58,1.58,0,0,1,.31-.09l-.06-.13a.36.36,0,0,1-.17.07l.07.09c.07-.23.36-.2.54-.17v-.13a.39.39,0,0,1-.2.08l0,.14.18-.07-.09-.07c0,.05-.29.12-.33.14a.36.36,0,0,0-.12.08s-.07.08-.1.08l.07,0v0l0,.06h0l-.11-.06a3.33,3.33,0,0,1,0,.55h.15v-.31h-.15l0,.42h.15L36.32,23c0-.08-.13-.06-.14,0a.91.91,0,0,0,.18.64.07.07,0,1,0,.12-.07Z" transform="translate(-4.17 -1.62)" style="fill:#84809e"/><path d="M35.77,22a3.69,3.69,0,0,1-.2-.81,5.36,5.36,0,0,0-.16-.89,12.13,12.13,0,0,0-.56-1.67.25.25,0,0,0-.35-.09.25.25,0,0,0-.09.34,10.18,10.18,0,0,1,.52,1.59,5.49,5.49,0,0,1,.14.81,5.14,5.14,0,0,0,.21.86c.1.31.59.17.49-.14Z" transform="translate(-4.17 -1.62)" style="fill:#84809e"/><path d="M34.81,18.82a5.39,5.39,0,0,0-.66-1.34,5.79,5.79,0,0,0-1.1-1,.26.26,0,0,0-.26.44,4.52,4.52,0,0,1,1,.85A4.32,4.32,0,0,1,34.32,19a.26.26,0,0,0,.31.18.26.26,0,0,0,.18-.31Z" transform="translate(-4.17 -1.62)" style="fill:#84809e"/><path d="M33,16.51a.72.72,0,0,1-.28-.24l-.29.37a.34.34,0,0,1,.17.11l.25-.43a3.21,3.21,0,0,1-.92-.55l-1-.66a.25.25,0,1,0-.25.43l1,.69a3.53,3.53,0,0,0,1,.58.25.25,0,0,0,.25-.42,1,1,0,0,0-.39-.24.26.26,0,0,0-.29.37,1.19,1.19,0,0,0,.47.42.25.25,0,0,0,.25-.43Z" transform="translate(-4.17 -1.62)" style="fill:#84809e"/><path d="M32.81,17.24c.07.32.35.47.59.66a2.58,2.58,0,0,1,.6.75,11.6,11.6,0,0,1,.82,2c.13.42.24.84.33,1.27.06.27.48.16.42-.12a14.26,14.26,0,0,0-.66-2.2,5.69,5.69,0,0,0-1-1.85,4.47,4.47,0,0,0-.41-.35.6.6,0,0,1-.28-.31c-.06-.28-.48-.16-.42.11Z" transform="translate(-4.17 -1.62)" style="fill:#84809e"/><path d="M33.17,17.19a3.2,3.2,0,0,1-.36-.52c-.1-.18-.16-.39-.26-.57a.7.7,0,0,0-.45-.3,3.74,3.74,0,0,0-.66-.09.14.14,0,0,0-.14.18,1.25,1.25,0,0,0,.42.55c.2.19.4.38.61.56.4.36.82.71,1.24,1.05.15.12.35-.09.21-.2-.4-.32-.8-.65-1.18-1-.19-.17-.38-.34-.56-.52l-.27-.25a.56.56,0,0,1-.19-.27l-.14.18a2,2,0,0,1,.6.09.41.41,0,0,1,.23.11.8.8,0,0,1,.1.23,3.69,3.69,0,0,0,.6,1c.12.14.32-.06.2-.2Z" transform="translate(-4.17 -1.62)" style="fill:#84809e"/><path d="M35.2,21.83a8.49,8.49,0,0,0,.36,1c.07.14.26.05.27-.08a3,3,0,0,1,.11-.5c0-.11-.07-.19-.17-.17a1,1,0,0,0-.43.17l.2.05a3.47,3.47,0,0,1-.17-.79,4.47,4.47,0,0,0-.25-.81l-.26.12c.32.59.23,1.31.51,1.93l.24-.15a2.55,2.55,0,0,1-.21-.81,9.61,9.61,0,0,0-.23-1A16.67,16.67,0,0,0,34.53,19c-.07-.16-.29,0-.27.11a3.82,3.82,0,0,0,.15.48c.05.16.1.33.14.49.09.32.18.64.26,1l.51,2A.14.14,0,0,0,35.6,23l-.51-2c-.09-.32-.17-.64-.26-1,0-.16-.09-.32-.14-.48a4.42,4.42,0,0,1-.15-.48l-.26.11A14.92,14.92,0,0,1,34.91,21c.09.31.16.62.22.94a2.64,2.64,0,0,0,.23.82.15.15,0,0,0,.25-.15c-.27-.62-.18-1.33-.5-1.93-.08-.14-.33,0-.27.11a4.15,4.15,0,0,1,.25.85,4.64,4.64,0,0,0,.19.82.16.16,0,0,0,.2.05.82.82,0,0,1,.36-.15l-.18-.17a2.75,2.75,0,0,0-.12.57l.27-.07a5.33,5.33,0,0,1-.33-.92.14.14,0,0,0-.28.07Z" transform="translate(-4.17 -1.62)" style="fill:#84809e"/><path d="M34.78,31.27c0,.33,0,.66,0,1,0,.09.11.09.14,0a.32.32,0,0,0-.13-.36.5.5,0,0,1-.15-.5l-.13,0,.15.33a.07.07,0,0,0,.13,0,.94.94,0,0,0,0-.41c0-.08-.13-.06-.14,0s0,.23,0,.35,0,.13.1.21a.07.07,0,0,0,.13,0v-.32c0-.09,0-.26,0-.32s0,0,.05,0l.06.07.09.11.21.26c0,.06.13,0,.12-.08a1.62,1.62,0,0,0-.17-.48.07.07,0,0,0-.14,0v.19l.14,0a.51.51,0,0,0-.66-.2c-.17.06-.32.14-.48.2a3.13,3.13,0,0,1-.52.16c-.07,0-.06.14,0,.14l.95,0a.08.08,0,0,0,0-.14.87.87,0,0,0-.42-.1.08.08,0,0,0,0,.15.72.72,0,0,0,.53-.15.07.07,0,0,0,0-.1.07.07,0,0,0-.06,0,4.15,4.15,0,0,0-.61,0v.14a.54.54,0,0,0,.22-.05c.08,0,0-.17-.05-.14a7.43,7.43,0,0,0-.81.37c-.07,0,0,.13,0,.13a.56.56,0,0,0,.31-.09.07.07,0,0,0,0-.1s0,0,0,0a.32.32,0,0,0-.14,0l0,.12a1.8,1.8,0,0,1,.39-.29,1.44,1.44,0,0,0,.33-.32,3.31,3.31,0,0,1,.77-.77c.07,0,0-.16,0-.13a1.34,1.34,0,0,0-.53.44,4.24,4.24,0,0,1-.69.58c-.06.05,0,.16.09.12a2.21,2.21,0,0,0,.55-.55l-.13,0a.85.85,0,0,1-.07.47c0,.08,0,.15.09.16l-.07-.07c0,.27-.47.15-.64.16a.44.44,0,0,0-.39.21.05.05,0,0,0,0,.08.18.18,0,0,0,.18.08l0-.14c-.09,0-.12-.41-.12-.46l-.06-.44-.09.07.5.2c.08,0,.25.05.22.16s-.12.14-.18.18l.1.1,0-.05c.06-.05,0-.16-.06-.13l-.27.07.08.11a.2.2,0,0,1,.07-.09.07.07,0,1,0-.07-.12l-.31.14c-.08,0,0,.15.06.13a3.94,3.94,0,0,0,.48-.18c.08,0,0-.15,0-.13a1.8,1.8,0,0,0-.38.16c-.08,0,0,.16.07.12l.25-.12-.07-.12-.23.11c-.07,0,0,.16,0,.13a1,1,0,0,0,.34-.18.07.07,0,0,0,0-.13l-.32.1.06.13.25-.12c.07,0,0-.13,0-.14a.46.46,0,0,0-.23,0c-.08,0-.05.17,0,.14a1.11,1.11,0,0,0,.32-.18.07.07,0,0,0-.07-.12,1.09,1.09,0,0,0-.38.14c-.07,0,0,.14.06.13A3.15,3.15,0,0,0,34,31l0-.13-.27.17a.08.08,0,0,0,0,.1.1.1,0,0,0,.09,0,.68.68,0,0,0,.26-.12.08.08,0,0,0,0-.1.09.09,0,0,0-.09,0l-.34.08.1.07h0a.09.09,0,0,0,0-.1.08.08,0,0,0-.09,0l-.22.11.07.12.13-.09a.08.08,0,0,0,0-.1.09.09,0,0,0-.07,0,.28.28,0,0,0-.23.05l.09.1a.57.57,0,0,1,.14-.13l-.09-.12-.1.11a.07.07,0,0,0,0,.1l.05,0a1,1,0,0,0,.29,0c.09,0,0-.16,0-.14l-.21,0,0,.13.35-.23a.08.08,0,0,0,0-.14.23.23,0,0,0-.17.07.07.07,0,0,0,0,.1s0,0,0,0a.14.14,0,0,0,.12-.07.07.07,0,0,0,0-.11h-.22c-.07,0-.1.13,0,.15h.1c.09,0,0-.16,0-.14a.41.41,0,0,0-.13.08s0,.1,0,.12a.12.12,0,0,0,.16-.06.07.07,0,0,0,0-.1h-.25l.07.09,0-.12-.13,0a.42.42,0,0,0,.19.16.08.08,0,0,0,.1,0,0,0,0,0,0,0-.07.21.21,0,0,0-.13-.13c-.07,0-.16.05-.09.11a1.43,1.43,0,0,1,.23.26l.08-.1a.24.24,0,0,1-.15-.13l-.08.11.11,0c.08,0,.12-.11,0-.14l-.1,0a.07.07,0,0,0-.09.1.4.4,0,0,0,.24.2.08.08,0,0,0,.09-.05.13.13,0,0,0,0-.06,1.16,1.16,0,0,0-.25-.29l-.08.11a.15.15,0,0,1,.08.08l.1-.1a.44.44,0,0,1-.15-.12s-.12-.05-.13,0l0,.12c0,.05,0,.09.07.09h.22l-.06-.11h0l0,.12.07,0,0-.14h0l0,.14a.54.54,0,0,1,.18,0l0-.1h0l0,.12.07,0,0-.14c-.11.09-.23.16-.35.24s0,.14.06.13l.21,0,0-.14a1,1,0,0,1-.25,0l.06.12.1-.11c.05-.05,0-.16-.09-.11a.69.69,0,0,0-.19.19c0,.06,0,.13.1.09a.25.25,0,0,1,.17,0l0-.14-.13.1a.07.07,0,0,0,0,.1.06.06,0,0,0,.09,0l.21-.1L33.57,31a.18.18,0,0,0,0,.12.08.08,0,0,0,.08.07h0l.34-.08-.05-.13a.5.5,0,0,1-.23.09l0,.14L34,31a.07.07,0,0,0-.05-.13,3.69,3.69,0,0,1-.45.11l.06.13a1.26,1.26,0,0,1,.34-.13l-.07-.12a.68.68,0,0,1-.26.15l0,.14a.64.64,0,0,1,.2,0l0-.13-.25.13c-.08,0,0,.16.05.13a1.7,1.7,0,0,1,.32-.1L33.82,31a1.11,1.11,0,0,1-.3.17l0,.14.23-.12c.09,0,0-.16-.07-.12l-.25.12.08.12a1.28,1.28,0,0,1,.34-.14L33.84,31a3.43,3.43,0,0,1-.45.16l.06.13.31-.14-.07-.12a.29.29,0,0,0-.13.14.08.08,0,0,0,0,.1.06.06,0,0,0,.06,0l.27-.07,0-.14a.35.35,0,0,0-.1.11.07.07,0,0,0,0,.1.09.09,0,0,0,.07,0c.13-.08.39-.34.21-.49a1.1,1.1,0,0,0-.33-.14l-.46-.18s-.09,0-.09.07c0,.25.07.51.1.76s.08.33.26.28a.07.07,0,0,0,0-.14.07.07,0,0,1-.08,0v.09c.14-.24.5-.09.71-.12a.38.38,0,0,0,.34-.32s0-.07-.07-.08h0l.06,0s0-.13,0-.15,0-.1,0-.15a.59.59,0,0,0,0-.26.08.08,0,0,0-.09-.05s0,0,0,0a1.94,1.94,0,0,1-.5.49l.09.11a4.55,4.55,0,0,0,.64-.52,1.4,1.4,0,0,1,.51-.46L35.12,30a2.9,2.9,0,0,0-.76.72,1.32,1.32,0,0,1-.39.39,1.28,1.28,0,0,0-.37.29c0,.05,0,.12,0,.12l.1,0,0-.13a.34.34,0,0,1-.24.07l0,.14c.25-.13.51-.24.77-.35l0-.13-.15,0c-.1,0-.1.15,0,.14a4,4,0,0,1,.6,0l0-.14a.61.61,0,0,1-.45.13v.15a.67.67,0,0,1,.34.07l0-.13-.94.05,0,.14a3.68,3.68,0,0,0,.77-.26c.21-.09.59-.26.72,0,0,.07.13,0,.13,0v-.19l-.13,0a1.2,1.2,0,0,1,.15.45l.12-.07-.32-.4a.18.18,0,0,0-.25-.06c-.1.06-.11.18-.12.29v.51l.14,0-.07-.09s0,0,0,0v-.36l-.14,0a.78.78,0,0,1,0,.34l.14,0c-.05-.11-.1-.22-.16-.33s-.11,0-.13,0a.63.63,0,0,0,.15.6c.07.07.18.14.14.26l.14,0c0-.33,0-.66,0-1,0-.09-.15-.1-.14,0Z" transform="translate(-4.17 -1.62)" style="fill:#84809e"/><path d="M35.79,29.82a7.16,7.16,0,0,1-.65.57h.09s0,0,0,0l.06-.1.12-.19s0-.1-.05-.1a.15.15,0,0,0-.13,0c-.07.06,0,.18.07.13h0l0-.11a3.87,3.87,0,0,0-.21.34.12.12,0,0,0,0,.16.08.08,0,0,0,.09,0,6.39,6.39,0,0,0,.68-.59c.07-.06,0-.16-.1-.1Z" transform="translate(-4.17 -1.62)" style="fill:#84809e"/><path d="M35.75,29.65a.08.08,0,0,0,0-.15A.08.08,0,0,0,35.75,29.65Z" transform="translate(-4.17 -1.62)" style="fill:#84809e"/><path d="M35.31,29.61c-.31.51-.89.75-1.27,1.19,0,.06,0,.17.08.12a4.88,4.88,0,0,0,.83-.74,4.83,4.83,0,0,0,.71-.87c.2-.35.36-.73.53-1.09s.31-.74.44-1.11a.07.07,0,0,0-.14,0,10.34,10.34,0,0,1-.44,1.09c-.15.35-.31.71-.49,1a4.55,4.55,0,0,1-.68.84,4.54,4.54,0,0,1-.83.75l.09.12c.39-.46,1-.7,1.29-1.22,0-.08-.07-.15-.12-.08Z" transform="translate(-4.17 -1.62)" style="fill:#84809e"/><path d="M35.37,23.08a17.41,17.41,0,0,1,1.45,3.09s.09,0,.07,0A17.94,17.94,0,0,0,35.44,23a0,0,0,0,0,0,0,0,0,0,0,0,0,0Z" transform="translate(-4.17 -1.62)" style="fill:#84809e"/><path d="M35.37,23.06a3.23,3.23,0,0,1,.62,1l.58,1.35a.26.26,0,0,0,.47-.13c0-.35-.09-.71-.14-1.07a2.6,2.6,0,0,0-.27-.95.25.25,0,0,0-.46.06,6.09,6.09,0,0,0-.1.73l.47-.12A3.61,3.61,0,0,0,36,23.1a.25.25,0,0,0-.4.3l.51,1.15a.24.24,0,0,0,.34.09.25.25,0,0,0,.09-.34l-.5-1.15-.4.3a3.44,3.44,0,0,1,.43.77.28.28,0,0,0,.29.12.27.27,0,0,0,.18-.25q0-.3.09-.6l-.46.06a2.21,2.21,0,0,1,.21.84c.05.31.09.62.13.93l.47-.13-.6-1.38a3.73,3.73,0,0,0-.68-1.11c-.23-.23-.58.13-.36.36Z" transform="translate(-4.17 -1.62)" style="fill:#84809e"/><path d="M36.13,22.36a.27.27,0,0,0-.13.17.25.25,0,0,0,.07.25.29.29,0,0,0,.36,0,.47.47,0,0,0,.21-.32.28.28,0,0,0,0-.2.25.25,0,0,0-.15-.11.26.26,0,0,0-.31.17.17.17,0,0,1,0,.1l0-.06a.08.08,0,0,0,0,0l0-.05,0,0,0,0h0l.06,0h.09l.11.06h0l0,.05h0l0,.06h0v.13h0l0,.06h0l-.09.09h0a.23.23,0,0,0,.12-.15.22.22,0,0,0,0-.19.25.25,0,0,0-.34-.09Z" transform="translate(-4.17 -1.62)" style="fill:#84809e"/><path d="M35.74,22.11l.86-.39-.31.43s1-.09.82.22l-.56.31A6,6,0,0,1,37.8,25.5h.87l-.55.45s.94.27.55.53l-.77.08s.84.52.48.64h-.53s-.5,3.35-2.52,4c0,0,.26.6,0,.56L35,31.41s.08,1.18-.21.92l-.34-.72-.84,0" transform="translate(-4.17 -1.62)" style="fill:none;stroke:#000;stroke-miterlimit:10;stroke-width:0.16837632px"/><path d="M30.66,15.06a7.48,7.48,0,0,1,5.08,6.88" transform="translate(-4.17 -1.62)" style="fill:none;stroke:#000;stroke-miterlimit:10;stroke-width:0.16837632px"/><path d="M35.11,30.07a.58.58,0,0,0-.11.15,0,0,0,0,0,.06,0,1.35,1.35,0,0,1,.49-.4,0,0,0,1,0,0-.06,1.5,1.5,0,0,0-.51.43l.06,0,.1-.13s0-.08,0-.05Z" transform="translate(-4.17 -1.62)" style="fill:#84809e"/><path d="M35.68,29.73l0-.08a.05.05,0,0,0,0,0,.05.05,0,0,0,0,0l0,.08s0,0,0,0,0,0,0,0Z" transform="translate(-4.17 -1.62)" style="fill:#84809e"/><path d="M36.48,27.5a1.28,1.28,0,0,0-.17.42,2.21,2.21,0,0,1-.21.5l.06,0a6,6,0,0,1,.36-.82c0-.05,0-.08-.06,0a5,5,0,0,0-.37.85s0,.06.07,0a2.11,2.11,0,0,0,.2-.43,1.4,1.4,0,0,1,.18-.48s0-.08-.06,0Z" transform="translate(-4.17 -1.62)" style="fill:#84809e"/><path d="M36.9,28.85a1.38,1.38,0,0,1,0,.67,3.94,3.94,0,0,1-.32.51s0,.08.06,0a3.14,3.14,0,0,0,.34-.55,1.68,1.68,0,0,0,0-.67C37,28.8,36.9,28.8,36.9,28.85Z" transform="translate(-4.17 -1.62)" style="fill:#84809e"/><path d="M37,29.3l-.1.24s.06.06.07,0l.1-.24s-.05-.06-.07,0Z" transform="translate(-4.17 -1.62)" style="fill:#84809e"/><path d="M36.84,25.49c0,.45,0,.89-.06,1.34,0,.05.07.05.07,0,0-.45.06-.89.06-1.34a0,0,0,0,0,0,0S36.84,25.47,36.84,25.49Z" transform="translate(-4.17 -1.62)" style="fill:#84809e"/><path d="M36.27,24.9a9.66,9.66,0,0,1,.21,2.4h.07v-.83s0,0,0,0a0,0,0,0,0,0,0v.83a0,0,0,1,0,.07,0,9.87,9.87,0,0,0-.21-2.42c0-.05-.08,0-.07,0Z" transform="translate(-4.17 -1.62)" style="fill:#84809e"/><path d="M36.21,25.18a20.44,20.44,0,0,1,.18,2.71H37c0-.72,0-1.44,0-2.16a.29.29,0,0,0-.58,0,13.33,13.33,0,0,1-.56,3l.55.15a1.39,1.39,0,0,1,.64-.95l-.44-.25c0,.41.06.81.07,1.22a.29.29,0,0,0,.56.07l.36-1L37,27.9a2,2,0,0,1-.23.92l.57.08,0-3.82a.29.29,0,0,0-.57,0,3.62,3.62,0,0,0,.16,1.18.28.28,0,0,0,.56-.07l0-1.1-.57.08a2.43,2.43,0,0,1,.12.89h.58v-.19a.29.29,0,0,0-.56-.08l-.41,1.45a13.38,13.38,0,0,1-.4,1.37,3.07,3.07,0,0,1-1.52,1.65l.35.45a6.4,6.4,0,0,0,1.52-2,3.29,3.29,0,0,0,.16-1.32c0-.47,0-.94,0-1.41s0-1.06.06-1.59l-.56.07a11.85,11.85,0,0,1,.16,2.22,4,4,0,0,1-.2,1.08,6.12,6.12,0,0,1-.44,1c-.2.39-.42.78-.65,1.17a.29.29,0,0,0,.5.29,13.34,13.34,0,0,0,1.11-2.16A5.66,5.66,0,0,0,37,25.7c0-.46-.1-.92-.17-1.38a.29.29,0,0,0-.31-.21.3.3,0,0,0-.25.29c-.06.9-.08,1.81-.07,2.72a4.54,4.54,0,0,1,0,1.22,2.5,2.5,0,0,1-.5.92c-.29.37-.63.7-1,1a.29.29,0,0,0,.35.46,3.65,3.65,0,0,0,1.46-1.32,8.16,8.16,0,0,0,.76-2.16l.37-1.34L37,25.86v.2a.29.29,0,1,0,.58,0,3.1,3.1,0,0,0-.14-1,.29.29,0,0,0-.57.08l0,1.1.56-.08a3.24,3.24,0,0,1-.13-1h-.58l0,3.82a.28.28,0,0,0,.25.28.3.3,0,0,0,.32-.2,2.55,2.55,0,0,0,.25-1.08.3.3,0,0,0-.3-.28.31.31,0,0,0-.27.21l-.35,1,.56.08c0-.41,0-.81-.06-1.22a.29.29,0,0,0-.43-.25,1.92,1.92,0,0,0-.9,1.3.29.29,0,0,0,.55.15A13,13,0,0,0,37,25.73h-.58c0,.72,0,1.44,0,2.15a.29.29,0,0,0,.58,0,22.26,22.26,0,0,0-.18-2.7.3.3,0,0,0-.29-.29.28.28,0,0,0-.29.29Z" transform="translate(-4.17 -1.62)" style="fill:#84809e"/><path d="M32.92,17.53l.76,1.07a6.57,6.57,0,0,1,.63,1,12.15,12.15,0,0,1,.39,1.16L35.09,22a.15.15,0,0,0,.28-.08L35,20.7a11.92,11.92,0,0,0-.41-1.19,5.75,5.75,0,0,0-.64-1.06l-.76-1.06c-.11-.16-.36,0-.25.14Z" transform="translate(-4.17 -1.62)" style="fill:#84809e"/><path d="M24.65,27.41l.44-.1a2.77,2.77,0,0,0,1.08,2h.29a11.37,11.37,0,0,0,0-1.85L25.67,27l.29-.33-.07-.12" transform="translate(-4.17 -1.62)" style="fill:#fcfcfc;stroke:#000;stroke-miterlimit:10;stroke-width:0.09621503999999999px"/><path d="M28.24,27.34h-.57a7.48,7.48,0,0,1-.12,1.37c0,.14-.27.34-.27.34-.29.16-.82-.37-.82-.37V27.46l.36-.34.53.1.32.12" transform="translate(-4.17 -1.62)" style="fill:#fff;stroke:#000;stroke-miterlimit:10;stroke-width:0.09621503999999999px"/><line x1="22.77" y1="25.99" x2="22.74" y2="26.86" style="fill:none;stroke:#000;stroke-miterlimit:10;stroke-width:0.09621503999999999px"/><line x1="23.02" y1="26.77" x2="23.02" y2="25.86" style="fill:none;stroke:#000;stroke-miterlimit:10;stroke-width:0.09621503999999999px"/><line x1="15.86" y1="13.87" x2="16.71" y2="13.05" style="fill:none;stroke:#000;stroke-miterlimit:10;stroke-width:0.09621503999999999px"/><line x1="19.63" y1="10.34" x2="20.01" y2="9.72" style="fill:none;stroke:#000;stroke-miterlimit:10;stroke-width:0.09621503999999999px"/><path d="M20.57,17.23l-.24-.09s2.29-2.31,3.3-2.48L25,14.18l-.12-.77-.05-.6V12.4l.29-.22h.12l.31.6.53,1,.19.45v.1Z" transform="translate(-4.17 -1.62)" style="fill:#9d8d59"/><path d="M27.08,33.48s-.65-.14-.39.8a29.26,29.26,0,0,1,0,4.42s-.17,2.07,1.23,1.66L27.57,40a3.23,3.23,0,0,1-.3-2.5L27.14,34Z" transform="translate(-4.17 -1.62)" style="fill:#192929;stroke:#000;stroke-miterlimit:10;stroke-width:0.14432256px"/><polygon points="17.73 32.88 18.23 34.06 21.11 34.55 26.11 34.06 27.57 33.72 29.97 32.66 29.8 31.85 29.04 31.69 26.75 32.88 20.3 33.29 17.73 32.88" style="fill:#d0e2ec;stroke:#000;stroke-miterlimit:10;stroke-width:0.14432256px"/><path d="M29.4,14.49s-.58-2,.74,0c0,0,1-1.9.77-.21l.92-.39.43.6.09-.46,0-.19.17-.45.22.24" transform="translate(-4.17 -1.62)" style="fill:none;stroke:#000;stroke-miterlimit:10;stroke-width:0.14432256px"/><path d="M31.42,7.28l-.36.41L30,8.89,29.06,10l-.65,1.16-.09.86.07.36s1.48.24,3.18.44c1.23.15,2.58.28,3.55.3a5.77,5.77,0,0,0,1-.05L35.93,11l-.2-1.12-.56-2-.89-1.28L33.2,6.27,32,6.7Z" transform="translate(-4.17 -1.62)" style="fill:#edebf9;stroke:#000;stroke-miterlimit:10;stroke-width:0.14432256px"/><path d="M28.17,14.37l0-.9,1.05,0,2.42.66,1.9.58,1.75.37-1.39,2.37L28.3,14.31v.13s0,0-.05-.07l.05,0Z" transform="translate(-4.17 -1.62)" style="fill:#ddcbb0"/><path d="M28.16,13.15l.11-.4,2.81.59s1.19.74,4.67.05l-.07.41-.37.39-.6.08-1.89-.11-1.89-.3Z" transform="translate(-4.17 -1.62)" style="fill:#dacc96"/><polygon points="24.18 10.81 24.11 11.13 24.31 11.42 26.84 11.91 29.09 12.26 30.38 12.27 31.21 11.9 31.98 11.71 24.18 10.81" style="fill:#ebe5c5"/><path d="M29.37,10.25l.92-1.34.38.09.06-.72.23.34L31.18,8s-.13,1.44,4,2.27c0,0-.76.51.19.28,0,0-.68.36,0,.56,0,0-1.33.52-.29.85l-.37.26.4.19-.42.5-.18.12c-1.66-.16-5.2-2.68-5.2-2.68" transform="translate(-4.17 -1.62)" style="fill:#fcb89c;stroke:#000;stroke-miterlimit:10;stroke-width:0.09621503999999999px"/><path d="M31.51,13.54a21.73,21.73,0,0,0,3.69.19" transform="translate(-4.17 -1.62)" style="fill:none;stroke:#000;stroke-miterlimit:10;stroke-width:0.09621503999999999px"/><line x1="28.59" y1="12.43" x2="29.33" y2="12.53" style="fill:none;stroke:#000;stroke-miterlimit:10;stroke-width:0.09621503999999999px"/><polygon points="24.02 11.48 27.36 12.26 28.29 12.46 29.85 12.61 30.43 12.52 31.2 12.4 30.79 11.6 31.79 11.52 31.94 11.56 31.93 11.98 31.87 12.43 31.61 12.91 31.51 13.09 31.32 13.37 31.16 13.48 30.42 13.42 28.64 12.89 28.07 12.7 27.14 12.41 25.34 12.11 24.43 11.89 23.98 11.8 24.02 11.48" style="fill:#9d8d59"/><path d="M30.05,11.73a1.22,1.22,0,0,1-.67.2,0,0,0,1,0,0,.07,1.28,1.28,0,0,0,.71-.21s0-.09,0-.06Z" transform="translate(-4.17 -1.62)" style="fill:#84809e"/><path d="M35.56,9a3.42,3.42,0,0,0-1.05-2.19,1.92,1.92,0,0,0-1.93-.36,3.34,3.34,0,0,0-1.24.86.08.08,0,0,0,.11.11,2.48,2.48,0,0,1,2-.94A2.11,2.11,0,0,1,35,7.6,3.84,3.84,0,0,1,35.41,9c0,.09.16.09.15,0Z" transform="translate(-4.17 -1.62)" style="fill:#84809e"/><path d="M35.29,8.51a.48.48,0,0,1,.13.35c0,.14,0,.28,0,.42a1,1,0,0,0,0,.35l0,.08a.56.56,0,0,1,0,.13.5.5,0,0,0,.06.24,4.13,4.13,0,0,1,.14.7c0,.23.08.47.11.7.07.49.12,1,.16,1.48l.07-.07a3.84,3.84,0,0,0-1.43.12.07.07,0,0,0,0,.14A4.8,4.8,0,0,0,35.88,13c.09,0,0-.16,0-.14a4.45,4.45,0,0,1-1.21.13l0,.15A3.44,3.44,0,0,1,36,13a.09.09,0,0,0,.08-.08c-.06-.77-.16-1.54-.29-2.31a5.72,5.72,0,0,0-.11-.57.73.73,0,0,1-.08-.25.33.33,0,0,0,0-.17A2.15,2.15,0,0,1,35.57,9a.81.81,0,0,0-.18-.64c-.07-.05-.17,0-.1.11Z" transform="translate(-4.17 -1.62)" style="fill:#84809e"/><path d="M29,10.2a3.64,3.64,0,0,0-.63,1,2.22,2.22,0,0,0,0,1.2c0,.09.15,0,.14,0a1.94,1.94,0,0,1,0-1.12,3.54,3.54,0,0,1,.26-.47,4.59,4.59,0,0,1,.33-.44c.06-.07,0-.18-.1-.11Z" transform="translate(-4.17 -1.62)" style="fill:#84809e"/><path d="M31.05,7.67a3.76,3.76,0,0,0-.84.85,4.45,4.45,0,0,0-.38.48c-.14.19-.29.38-.42.57a.07.07,0,1,0,.12.07l.4-.54a5.71,5.71,0,0,1,.38-.48,4.25,4.25,0,0,1,.81-.83c.08,0,0-.17-.07-.12Z" transform="translate(-4.17 -1.62)" style="fill:#84809e"/><path d="M28.22,14.32l-.07-.8s0-1,.24-1.13a2.33,2.33,0,0,1,.68-2.29s1.41-1.81,2.17-2.62c.8-1,3.59-3.09,4.48,2.39,0,0,.89,3.91.11,4.48l-1.77,3.1Z" transform="translate(-4.17 -1.62)" style="fill:none;stroke:#000;stroke-miterlimit:10;stroke-width:0.14432256px"/><path d="M21.08,16.63s-1.93-.64.43-.61c0,0-1-1.88.26-.76l.2-1h.74l-.33-.34-.13-.13-.28-.4.32,0" transform="translate(-4.17 -1.62)" style="fill:none;stroke:#000;stroke-miterlimit:10;stroke-width:0.14432256px"/><path d="M16.3,10.86l.13.53L16.8,13l.4,1.39.59,1.2.65.56.34.15s1-1.08,2.17-2.36c.83-.93,1.7-2,2.27-2.75a5.83,5.83,0,0,0,.54-.87l-1.83-1-1-.48-2-.7H17.34l-.85.73L16.17,10Z" transform="translate(-4.17 -1.62)" style="fill:#edebf9;stroke:#000;stroke-miterlimit:10;stroke-width:0.14432256px"/><path d="M20.28,17.57,19.56,17l.63-.84,1.92-1.62,1.56-1.23L25,12.11l1.15,2.5-5.81,2.82.1.08s-.07,0-.08,0l0,0Z" transform="translate(-4.17 -1.62)" style="fill:#ddcbb0"/><path d="M19.27,16.88,19,16.56l2.08-2s1.29-.56,2.71-3.81l.29.29.1.53-.27.54-1.16,1.48L21.44,15Z" transform="translate(-4.17 -1.62)" style="fill:#dacc96"/><polygon points="14.63 14.7 14.84 14.94 15.2 14.94 17.05 13.13 18.61 11.49 19.36 10.44 19.52 9.54 19.81 8.8 14.63 14.7" style="fill:#ebe5c5"/><path d="M17.58,14.23,17,12.72l.29-.27L16.74,12h.41l-.41-.56s1.11.94,4.16-2c0,0,0,.92.33,0,0,0-.09.77.44.36,0,0-.34,1.4.53.72V11l.38-.22.17.63v.22c-1.08,1.27-5.16,2.74-5.16,2.74" transform="translate(-4.17 -1.62)" style="fill:#fcb89c;stroke:#000;stroke-miterlimit:10;stroke-width:0.09621503999999999px"/><path d="M21.51,14.35a22.17,22.17,0,0,0,2.25-2.92" transform="translate(-4.17 -1.62)" style="fill:none;stroke:#000;stroke-miterlimit:10;stroke-width:0.09621503999999999px"/><line x1="18.47" y1="12" x2="18.97" y2="11.45" style="fill:none;stroke:#000;stroke-miterlimit:10;stroke-width:0.09621503999999999px"/><polygon points="15.08 15.21 17.63 12.92 18.33 12.27 19.33 11.06 19.59 10.54 19.93 9.83 19.04 9.71 19.55 8.85 19.67 8.75 20 8.99 20.34 9.3 20.58 9.78 20.68 9.98 20.8 10.29 20.8 10.48 20.32 11.06 18.88 12.22 18.4 12.58 17.63 13.18 16.36 14.48 15.66 15.11 15.32 15.42 15.08 15.21" style="fill:#9d8d59"/><path d="M19.18,14.52a1.24,1.24,0,0,1-.22.67,0,0,0,0,0,.07,0,1.39,1.39,0,0,0,.23-.71S19.19,14.47,19.18,14.52Z" transform="translate(-4.17 -1.62)" style="fill:#84809e"/><path d="M20,8.41A3.47,3.47,0,0,0,17.64,8a1.92,1.92,0,0,0-1.39,1.4,3.3,3.3,0,0,0,0,1.5c0,.09.16.05.14,0a2.5,2.5,0,0,1,.39-2.2,2.12,2.12,0,0,1,1.83-.58A4.26,4.26,0,0,1,20,8.54c.08,0,.15-.08.07-.12Z" transform="translate(-4.17 -1.62)" style="fill:#84809e"/><path d="M19.52,8.38a.49.49,0,0,1,.38.11c.13.07.25.16.37.24a1,1,0,0,0,.33.15,1,1,0,0,1,.17.12,1.82,1.82,0,0,0,.25.07,6.31,6.31,0,0,1,.66.29l.63.31c.43.22.85.45,1.27.69l0-.11a3.84,3.84,0,0,0-.73,1.25c0,.09.09.12.13.06a4.58,4.58,0,0,0,.6-1.11c0-.08-.11-.12-.14,0a4.82,4.82,0,0,1-.58,1.07l.13,0a3.64,3.64,0,0,1,.69-1.19.07.07,0,0,0,0-.1h0c-.67-.4-1.36-.75-2.06-1.08l-.5-.22c-.07,0-.17,0-.25-.07s-.07-.07-.12-.09-.18-.06-.26-.11a3.28,3.28,0,0,1-.31-.2c-.18-.12-.43-.3-.66-.23a.07.07,0,0,0,0,.14Z" transform="translate(-4.17 -1.62)" style="fill:#84809e"/><path d="M17.33,14.52a4,4,0,0,0,.22.61,2,2,0,0,0,.27.52,2.14,2.14,0,0,0,.91.63c.09,0,.16-.08.07-.12a2.09,2.09,0,0,1-.88-.61,2.26,2.26,0,0,1-.25-.49,5.66,5.66,0,0,1-.2-.58c0-.09-.16-.05-.14,0Z" transform="translate(-4.17 -1.62)" style="fill:#84809e"/><path d="M16.41,11.4a4.62,4.62,0,0,0,.23,1.21c.05.19.12.38.18.56s.14.43.22.64.17,0,.14,0-.14-.39-.2-.59-.14-.38-.19-.57a4.62,4.62,0,0,1-.23-1.21A.08.08,0,1,0,16.41,11.4Z" transform="translate(-4.17 -1.62)" style="fill:#84809e"/><path d="M20.27,17.5l-.7-.39s-.81-.56-.79-.85a2.35,2.35,0,0,1-1.5-1.87s-.68-2.19-.92-3.27-.48-4.71,4.52-2.32c0,0,3.72,1.5,3.75,2.46l1.54,3.22Z" transform="translate(-4.17 -1.62)" style="fill:none;stroke:#000;stroke-miterlimit:10;stroke-width:0.14432256px"/><path d="M22.34,34.47S20.25,30,24,30.86a16.53,16.53,0,0,0,7.34-1.18s3-.05,1.61,3.71l-2.43,1.08S22.7,35.48,22.34,34.47Z" transform="translate(-4.17 -1.62)" style="fill:#ddcca0;stroke:#000;stroke-miterlimit:10;stroke-width:0.14432256px"/><path d="M20.81,31.61s.25,4.57,1.74,5L23,37l.17.82s.16,3.78,1.82,3.94h.29s2.1,2.12,3,.73c0,0,1.88,1.53,4-2.36,0,0,2.21-4.16-.34-3.42l-1.15,1.54-.12-.94-.41-1.13.34-1.63s2.84-2.22,1.1-3.35c0,0-2.26,2.14-8.25.82,0,0-2.31.58,1.28,2.29,0,0,1.2,1.85.53,3.17-.72.22-.87-.62-.87-.62h-.74l-.41,1" transform="translate(-4.17 -1.62)" style="fill:#89999a;stroke:#000;stroke-miterlimit:10;stroke-width:0.14432256px"/><path d="M28.83,34.47s.92-1.52-1.42-1c0,0-.48-.08-.19.81,0,0,.27,3.3-.09,4a1.59,1.59,0,0,0,.93,1.93s1-.41.6-3.23Z" transform="translate(-4.17 -1.62)" style="fill:#ac976b"/><path d="M27.75,36.42s0,.84-1.85.41a5.67,5.67,0,0,1-.22-2.29s.53-.72,2.19.27l.34-.36s1.68,0,1.71.45c0,0,.28,1.73-.46,2.14C29.46,37,27.85,37.28,27.75,36.42Z" transform="translate(-4.17 -1.62)" style="fill:#030303"/><path d="M26.7,36.16v-1h-.33V36S26.37,36.24,26.7,36.16Z" transform="translate(-4.17 -1.62)" style="fill:#cee3e5"/><path d="M29.33,36.43l.12-1h-.29l-.15.89S29,36.5,29.33,36.43Z" transform="translate(-4.17 -1.62)" style="fill:#cee3e5"/><polygon points="17.73 32.88 18.11 32.88 17.58 31.05 17.51 30.16 17.1 29.83 16.88 30.1 16.77 30.26 17.73 32.88" style="fill:#f2ebda;stroke:#000;stroke-miterlimit:10;stroke-width:0.14432256px"/><circle cx="26.11" cy="38.62" r="0.31" style="fill:none;stroke:#000;stroke-miterlimit:10;stroke-width:0.16837632px"/><polygon points="18.23 34.06 19 35.82 19.35 35.31 19.94 35.19 20.73 35.84 21.11 35.6 21.12 34.56 18.23 34.06" style="fill:#f2ebda;stroke:#000;stroke-miterlimit:10;stroke-width:0.14432256px"/><circle cx="27.63" cy="37.08" r="0.77" style="fill:none;stroke:#000;stroke-miterlimit:10;stroke-width:0.16837632px"/><circle cx="27.61" cy="37.14" r="0.23" style="fill:none;stroke:#000;stroke-miterlimit:10;stroke-width:0.16837632px"/><ellipse cx="24.11" cy="39.1" rx="0.3" ry="0.57" transform="translate(-15.64 8.42) rotate(-19.11)" style="fill:none;stroke:#000;stroke-miterlimit:10;stroke-width:0.16837632px"/><path d="M25.27,41.78s-1.08-3.32-.38-4.33" transform="translate(-4.17 -1.62)" style="fill:none;stroke:#000;stroke-miterlimit:10;stroke-width:0.16837632px"/><polyline points="26.34 32.88 29.44 31.51 30.14 31.51 29.9 31.13 30.24 30.74 29.83 30.64 30.24 30.36 29.47 30.04" style="fill:none;stroke:#000;stroke-miterlimit:10;stroke-width:0.14432256px"/><path d="M34.14,34.29s2.62,3.15-.72,1.2c0,0,.16,1.59-.32,1.76l-.16-.42-.49-.24-.43,0-.35.31-.31.41-.44.58-.24.09-.07-.58-.14-.5-.19-.43-.09-.36.09-.47.43-.1L32.45,35l1,.46" transform="translate(-4.17 -1.62)" style="fill:#f2ebda;stroke:#000;stroke-miterlimit:10;stroke-width:0.14432256px"/><polygon points="28.48 33.39 29.97 32.74 30.94 34.23 30.82 34.49 29.45 33.98 28.48 33.39" style="fill:#f2ebda;stroke:#000;stroke-miterlimit:10;stroke-width:0.14432256px"/><path d="M32.37,35.33c.33-.11.66-.22,1-.35l.48-.18a1.39,1.39,0,0,0,.36-.2.08.08,0,0,0-.09-.12c-.57.29-1.24.31-1.79.63a.07.07,0,0,0,.07.13,9.74,9.74,0,0,1,1.74-.62l-.07-.12a4.56,4.56,0,0,1-1.79.77l.06.14a6,6,0,0,1,1.34-.54l-.08-.1a.85.85,0,0,1-.55.36,4.46,4.46,0,0,1-.72.18l0,.13c.29-.14.53-.34.81-.47a3.62,3.62,0,0,1,1-.27l-.08-.11a.7.7,0,0,1-.33.25l-.46.2a9.24,9.24,0,0,1-.89.29l.07.12a1.29,1.29,0,0,1,.36-.25l.42-.24.4-.23a1.32,1.32,0,0,1,.46-.19c.09,0,.09-.16,0-.15a2.69,2.69,0,0,0-.89.42l-.48.27a1.64,1.64,0,0,0-.37.26.08.08,0,0,0,0,.11.08.08,0,0,0,.07,0,7.18,7.18,0,0,0,1-.34c.25-.1.6-.21.74-.46a.07.07,0,0,0-.08-.11,4.51,4.51,0,0,0-1,.28c-.3.13-.55.34-.85.48-.08,0,0,.15.06.14a4,4,0,0,0,.84-.23.88.88,0,0,0,.52-.38.07.07,0,0,0,0-.1h0a6.62,6.62,0,0,0-1.38.55c-.07,0,0,.16.05.13a4.74,4.74,0,0,0,1.85-.81.07.07,0,0,0-.07-.12,11,11,0,0,0-1.77.63l.07.13a3.22,3.22,0,0,1,.9-.32,4.79,4.79,0,0,0,.9-.31l-.09-.12a1.23,1.23,0,0,1-.41.21l-.46.18-.9.31c-.09,0,0,.17,0,.14Z" transform="translate(-4.17 -1.62)" style="fill:#aa9d65"/><polygon points="23.86 38.63 23.55 36.9 23.55 34.31 23.69 31.85 22.9 31.87 22.95 36.9 22.9 38.43 23.86 38.63" style="fill:#1d2c2d;stroke:#000;stroke-miterlimit:10;stroke-width:0.14432256px"/><path d="M23.06,33.84l.44.09s.06-.06,0-.07l-.44-.09s-.06.06,0,.07Z" transform="translate(-4.17 -1.62)" style="fill:#b0996c"/><path d="M23.12,33.89a1.45,1.45,0,0,1,.85.37,2.11,2.11,0,0,1,.68.54c.05.08.18,0,.12-.07a2.46,2.46,0,0,0-.72-.6,1.56,1.56,0,0,0-.93-.38C23,33.76,23,33.91,23.12,33.89Z" transform="translate(-4.17 -1.62)" style="fill:#b0996c"/><path d="M22.51,33.14a2.35,2.35,0,0,0,.85.92,3.16,3.16,0,0,1,.95.79.07.07,0,1,0,.12-.07,3,3,0,0,0-.88-.77,2.25,2.25,0,0,1-.91-.95c0-.08-.17,0-.13.07Z" transform="translate(-4.17 -1.62)" style="fill:#b0996c"/><path d="M24.79,34.72a2,2,0,0,1-.35,0l0,.14a.84.84,0,0,1,.27,0c.08,0,.1-.13,0-.15a2.69,2.69,0,0,0-.4,0l0,.14a.59.59,0,0,1,.26-.07v-.15a1,1,0,0,1-.25,0v.13a.26.26,0,0,1,.15,0l0-.14h-.18l0,.13c.05,0,.2-.1.23,0l.13,0a.46.46,0,0,0-.34-.25.26.26,0,0,0-.25.19s.06.12.11.08l.29-.19a.07.07,0,0,0,0-.13.55.55,0,0,0-.49.12l.1.1.21-.19a.08.08,0,0,0,0-.11h0a.34.34,0,0,0-.36.09c-.05.05,0,.15.07.12a.32.32,0,0,0,.21-.2s0-.07,0-.08a.21.21,0,0,0-.3,0,.17.17,0,0,0,0,.24h0c.06,0,.13,0,.09-.1a.76.76,0,0,0-.3-.26,2.75,2.75,0,0,1-.41-.24,2.47,2.47,0,0,1-.65-.75l-.11.09a4.93,4.93,0,0,0,1.94,1.3c.09,0,.12-.11,0-.14a5,5,0,0,1-1.25-.72l-.07.12,0,0c.07.07.17,0,.1-.1a.2.2,0,0,0-.11-.06.07.07,0,0,0-.07.12,5.59,5.59,0,0,0,1.32.76l0-.14A4.91,4.91,0,0,1,22.71,33c-.06-.06-.16,0-.12.08a2.56,2.56,0,0,0,1,1,1,1,0,0,1,.41.28l.1-.1s.09,0,.12,0l0-.08a.13.13,0,0,1-.1.1l.07.12a.22.22,0,0,1,.22-.06l0-.12-.2.2c-.07.06,0,.16.1.1a.45.45,0,0,1,.35-.09v-.13l-.29.19.1.09a.12.12,0,0,1,.15-.08.46.46,0,0,1,.17.17.07.07,0,0,0,.13,0c-.05-.22-.29-.17-.44-.09s0,.13,0,.13h.17c.08,0,.11-.13,0-.14a.37.37,0,0,0-.25,0,.07.07,0,0,0,0,.13,1.37,1.37,0,0,0,.29,0,.08.08,0,1,0,0-.15,1,1,0,0,0-.33.09.08.08,0,0,0,0,.14,1.45,1.45,0,0,1,.36,0l0-.14a1.54,1.54,0,0,0-.31.05.07.07,0,0,0,0,.14,1.36,1.36,0,0,0,.35,0,.07.07,0,0,0,0-.14Z" transform="translate(-4.17 -1.62)" style="fill:#b0996c"/><path d="M23.14,33.69a.49.49,0,0,1,.3.19c0,.07.18,0,.12-.08a.71.71,0,0,0-.38-.25c-.09,0-.13.12,0,.14Z" transform="translate(-4.17 -1.62)" style="fill:#b0996c"/><path d="M22.58,33.16a.08.08,0,0,0,0-.15A.08.08,0,0,0,22.58,33.16Z" transform="translate(-4.17 -1.62)" style="fill:#b0996c"/><path d="M31.75,31.19c.31-.05.47.29.52.54a3.3,3.3,0,0,1,0,.83,1.89,1.89,0,0,1-.72,1.23s0,.09,0,.06a2,2,0,0,0,.76-1.41c0-.41,0-1.41-.66-1.32-.05,0,0,.08,0,.07Z" transform="translate(-4.17 -1.62)" style="fill:#b0996c"/><path d="M31.88,31.23a.94.94,0,0,1,.4.71A2.53,2.53,0,0,1,32.23,33s.06.07.07,0a2.58,2.58,0,0,0,0-1.14.93.93,0,0,0-.43-.71S31.83,31.21,31.88,31.23Z" transform="translate(-4.17 -1.62)" style="fill:#aa9d65"/><path d="M32.49,32.06a2.58,2.58,0,0,1-.42,1.14c-.14.17-.31.33-.46.48a1.64,1.64,0,0,1-.52.35l.07.13a3.47,3.47,0,0,0,.64-.63,5.62,5.62,0,0,0,.58-.71l-.13,0a1.37,1.37,0,0,1-.16.32l.13,0a4.71,4.71,0,0,1,.27-.71l-.14-.06a2,2,0,0,1-.08.26c0,.09.11.13.14,0a2,2,0,0,0,.09-.35c0-.09-.11-.13-.13,0l-.06.19.14,0,0-.31-.14,0v.14a.07.07,0,0,0,.14,0v-.17a.08.08,0,0,0-.15,0,5.23,5.23,0,0,1-.12.54.07.07,0,0,0,.14,0l0-.16c0-.09-.12-.13-.14,0a2.88,2.88,0,0,1-.13.31l.13,0v-.06a.07.07,0,0,0-.12,0A1.77,1.77,0,0,0,32,33l.13.06a.66.66,0,0,1,.09-.19l-.13-.06a1.48,1.48,0,0,1-.12.29.07.07,0,1,0,.12.07L32.2,33l-.12-.08a6.19,6.19,0,0,1-.41.59l.13.07c.08-.12.16-.24.23-.37s-.08-.15-.12-.07l-.25.42.12.07c.12-.24.24-.49.38-.72a1.32,1.32,0,0,0,.26-.65h-.14a.49.49,0,0,1-.06.29l.13,0a1.64,1.64,0,0,0,0-1c-.11-.25-.29-.54-.57-.59l0,.14c.13,0,.21.22.26.32a2.18,2.18,0,0,1,.21.47,1.13,1.13,0,0,1-.15,1l.13.05a2.05,2.05,0,0,1,.18-.49c0-.09-.08-.16-.12-.08a2.14,2.14,0,0,0-.2.53.07.07,0,0,0,0,.09.06.06,0,0,0,.08,0,1.28,1.28,0,0,0,.16-1.11,3.65,3.65,0,0,0-.25-.53c-.08-.13-.15-.3-.31-.32s-.13.12,0,.14c.25,0,.4.31.49.53a1.57,1.57,0,0,1,0,.86c0,.08.1.14.14.06a.75.75,0,0,0,.07-.36.07.07,0,1,0-.14,0,1.69,1.69,0,0,1-.29.66c-.12.21-.22.42-.33.64s.08.15.12.07l.25-.42-.12-.07a2.92,2.92,0,0,1-.24.37c-.05.08.07.14.13.07s.28-.38.4-.58-.07-.15-.12-.08l-.11.18.12.07a1.3,1.3,0,0,0,.14-.32c0-.08-.09-.12-.13-.06A1,1,0,0,0,32,33c0,.07.1.12.14,0a1.28,1.28,0,0,1,.14-.21l-.12-.05v.06a.07.07,0,0,0,.13,0,2.07,2.07,0,0,0,.15-.34l-.14,0,0,.16.14,0a5.23,5.23,0,0,0,.12-.54l-.14,0v.16h.14v-.13c0-.08-.13-.1-.14,0l0,.31a.07.07,0,0,0,.14,0l.06-.18-.14,0a3.57,3.57,0,0,1-.1.35l.14,0a2.58,2.58,0,0,0,.08-.26.07.07,0,0,0-.13,0,5.05,5.05,0,0,0-.27.74.07.07,0,0,0,.13.06,1.49,1.49,0,0,0,.17-.36c0-.08-.09-.12-.13,0a7.22,7.22,0,0,1-.56.68,3.84,3.84,0,0,1-.61.6.07.07,0,0,0,.07.12,1.58,1.58,0,0,0,.53-.35,5.24,5.24,0,0,0,.51-.54,2.67,2.67,0,0,0,.43-1.17c0-.09-.12-.13-.14,0Z" transform="translate(-4.17 -1.62)" style="fill:#aa9d65"/><path d="M32.2,33.3a2.25,2.25,0,0,1-.71.47l.07.13a1.82,1.82,0,0,1,.45-.2l0-.13a.94.94,0,0,1-.33.14l.05.14a3.07,3.07,0,0,0,.74-.49l-.11-.09a.77.77,0,0,1-.31.31l.1.1.38-.53-.13-.07a1.56,1.56,0,0,1-.23.34l.12.07a3.55,3.55,0,0,1,.21-.44L32.33,33a3,3,0,0,1-.28.44l.12.09a1.82,1.82,0,0,1,.16-.31l-.12-.07a3.28,3.28,0,0,1-.27.38l.11.09a1.44,1.44,0,0,1,.27-.28l-.11-.09a1.09,1.09,0,0,0-.08.15c0,.07.08.13.12.07a2.17,2.17,0,0,0,.32-.69,1.53,1.53,0,0,0,.1-.79c-.1-.44-.33-1-.83-1v.14c.19,0,.3.34.35.49a2.18,2.18,0,0,1,.15.61.08.08,0,0,0,.15,0,2.79,2.79,0,0,0-.11-.76l-.14,0a2.74,2.74,0,0,1,.17.74l.14,0-.07-.44c0-.08-.14-.07-.14,0a3.13,3.13,0,0,1-.12,1.39c0,.09.11.12.14,0a3.3,3.3,0,0,0,.13-1.43h-.15l.07.45c0,.08.15.06.14,0a2.94,2.94,0,0,0-.17-.78c0-.08-.17-.05-.14,0a2.5,2.5,0,0,1,.1.72h.15a3,3,0,0,0-.22-.78c-.08-.2-.19-.45-.44-.46-.09,0-.09.13,0,.14.44.05.64.6.71,1a1.51,1.51,0,0,1-.12.69,1.86,1.86,0,0,1-.27.61l.12.07.06-.12c.05-.07,0-.13-.11-.08a1.42,1.42,0,0,0-.29.31c-.05.06.06.15.11.09a2.42,2.42,0,0,0,.29-.42.07.07,0,0,0-.13-.07c-.06.1-.11.2-.16.3s.06.16.12.09a2.47,2.47,0,0,0,.29-.47.07.07,0,1,0-.12-.07,2.92,2.92,0,0,0-.23.47c0,.07.07.12.12.07a1.45,1.45,0,0,0,.25-.36.07.07,0,1,0-.12-.07l-.38.53c0,.06,0,.13.1.09a.89.89,0,0,0,.36-.36c0-.08,0-.14-.11-.09a2.83,2.83,0,0,1-.71.47c-.08,0,0,.15.05.13A1.22,1.22,0,0,0,32,33.7a.07.07,0,0,0-.06-.13,2.33,2.33,0,0,0-.49.21c-.08,0,0,.16.08.12a2.15,2.15,0,0,0,.74-.5.07.07,0,0,0-.11-.1Z" transform="translate(-4.17 -1.62)" style="fill:#aa9d65"/><path d="M32.49,33.31c.06-.25.15-.5.22-.75a1.61,1.61,0,0,0,.09-.72,1.67,1.67,0,0,0-.29-.6.94.94,0,0,0-.5-.38c-.09,0-.13.11,0,.14a.83.83,0,0,1,.47.39,1.29,1.29,0,0,1,.22.59,5.65,5.65,0,0,1-.31,1.29c0,.09.12.13.14,0Z" transform="translate(-4.17 -1.62)" style="fill:#aa9d65"/><path d="M32.49,31.66c0,.18.07.35.09.53s.14.06.15,0v-.46a.08.08,0,0,0-.15,0,3.14,3.14,0,0,1-.13.86l.14,0V32.5l-.14,0c0,.24-.16.43-.29.61a1.14,1.14,0,0,1-.18.25.75.75,0,0,0-.2.15c-.06.07,0,.18.1.1s.18-.12.25-.19.13-.21.21-.3a.89.89,0,0,0,.25-.65c0-.09-.14-.06-.14,0v.08a.08.08,0,0,0,.15,0,3.84,3.84,0,0,0,.14-.9h-.15v.46l.14,0-.09-.53c0-.09-.16-.05-.14,0Z" transform="translate(-4.17 -1.62)" style="fill:#aa9d65"/><path d="M31.67,31.16A1.52,1.52,0,0,1,32,31c.09,0,0-.16,0-.14a1.27,1.27,0,0,0-.36.2.07.07,0,1,0,.07.12Z" transform="translate(-4.17 -1.62)" style="fill:#aa9d65"/><path d="M32.16,35.16a3.37,3.37,0,0,1-1,.3l-.53.11a.38.38,0,0,0-.31.21,1.37,1.37,0,0,0,0,.49,4.51,4.51,0,0,0,.1.53c.1.37.22.74.31,1.11a.07.07,0,0,0,.14,0,4.28,4.28,0,0,0-.09-.87l-.15-.91-.14,0a3.4,3.4,0,0,1,0,.9l.15,0a3.93,3.93,0,0,1-.09-.84V36c0-.1.06-.11.14-.13l.43-.12.82-.21.41-.11c.09,0,.16-.06.19-.15a.07.07,0,0,0,0-.08.26.26,0,0,0-.15,0l.06.11h0l0-.14a5,5,0,0,1-1.45.53l-.39.07a.38.38,0,0,0-.23.08.27.27,0,0,0,0,.23c0,.14,0,.27.07.4a.07.07,0,0,0,.14,0,1.21,1.21,0,0,1,.16-.45l-.13,0a11,11,0,0,1,.28,1.9.07.07,0,1,0,.14,0c0-.62-.14-1.22-.18-1.83,0-.09,0-.15.08-.17l.23,0,.45-.1c.31-.08.61-.16.92-.26l-.06-.13a4.58,4.58,0,0,1-1.81.5l0,.14.31-.12c.09,0,.05-.17,0-.14l-.31.13c-.07,0-.07.15,0,.14a4.88,4.88,0,0,0,1.88-.52c.07,0,0-.16,0-.13-.33.1-.67.19-1,.27l-.52.12c-.11,0-.23,0-.26.16a1.37,1.37,0,0,0,0,.45c0,.16,0,.32.07.47a6.44,6.44,0,0,1,.09,1.07h.14a10.68,10.68,0,0,0-.28-1.94.07.07,0,0,0-.13,0,1.25,1.25,0,0,0-.18.5h.14l-.06-.34c0-.09,0-.15.08-.19l.1,0a5.34,5.34,0,0,0,1.86-.6c.06,0,0-.13,0-.14a.12.12,0,0,0-.12.07.08.08,0,0,0,.07.11.11.11,0,0,1,.08,0l0-.08c0,.05-.16.07-.2.08l-.21.05-.43.12-.88.23c-.09,0-.2,0-.25.13a.92.92,0,0,0,0,.37,4.12,4.12,0,0,0,.1.86c0,.09.13.06.14,0a3.61,3.61,0,0,0,0-.93.07.07,0,1,0-.14,0l.15.87a4.31,4.31,0,0,1,.09.88l.14,0c-.08-.33-.19-.65-.27-1a4.7,4.7,0,0,1-.12-.51,1.59,1.59,0,0,1,0-.53c0-.15.33-.17.45-.19l.47-.09a3.16,3.16,0,0,0,.9-.29c.08,0,0-.17-.08-.12Z" transform="translate(-4.17 -1.62)" style="fill:#aa9d65"/><ellipse cx="22.45" cy="21.53" rx="0.48" ry="0.88" transform="translate(-6.26 39) rotate(-81.68)" style="fill:#fff"/><circle cx="18.47" cy="19.94" r="0.34"/><path d="M33.92,21.68c-.1.18-1,.05-1.88.05s-1.7-.06-1.7-.26.8-.51,1.73-.51S34,21.47,33.92,21.68Z" transform="translate(-4.17 -1.62)" style="fill:#a42a12"/><ellipse cx="27.2" cy="19.66" rx="0.79" ry="0.44" style="fill:#eae8f6"/><ellipse cx="31.11" cy="21.28" rx="0.23" ry="0.29" transform="translate(-9.42 29.58) rotate(-49.64)"/><line x1="30.74" y1="20.17" x2="30.95" y2="17.45" style="fill:none;stroke:#000;stroke-miterlimit:10;stroke-width:0.12026879999999997px"/><path d="M28,21" transform="translate(-4.17 -1.62)" style="fill:none;stroke:#000;stroke-miterlimit:10;stroke-width:0.14432256px"/><path d="M26.51,21" transform="translate(-4.17 -1.62)" style="fill:none;stroke:#000;stroke-miterlimit:10;stroke-width:0.14432256px"/><path d="M27.46,27.7" transform="translate(-4.17 -1.62)" style="fill:none;stroke:#000;stroke-miterlimit:10;stroke-width:0.14432256px"/></svg>